<?xml version="1.0" encoding="UTF-8" standalone="no"?>
<svg
   xmlns:dc="http://purl.org/dc/elements/1.1/"
   xmlns:cc="http://creativecommons.org/ns#"
   xmlns:rdf="http://www.w3.org/1999/02/22-rdf-syntax-ns#"
   xmlns:svg="http://www.w3.org/2000/svg"
   xmlns="http://www.w3.org/2000/svg"
   xmlns:sodipodi="http://sodipodi.sourceforge.net/DTD/sodipodi-0.dtd"
   xmlns:inkscape="http://www.inkscape.org/namespaces/inkscape"
   id="svg"
   version="1.1"
   width="116.4"
   height="116.4"
   style="display:block"
   sodipodi:docname="corfo.svg"
   inkscape:version="0.92.1 r15371">
  <metadata
     id="metadata16">
    <rdf:RDF>
      <cc:Work
         rdf:about="">
        <dc:format>image/svg+xml</dc:format>
        <dc:type
           rdf:resource="http://purl.org/dc/dcmitype/StillImage" />
        <dc:title></dc:title>
      </cc:Work>
    </rdf:RDF>
  </metadata>
  <defs
     id="defs14" />
  <sodipodi:namedview
     pagecolor="#ffffff"
     bordercolor="#666666"
     borderopacity="1"
     objecttolerance="10"
     gridtolerance="10"
     guidetolerance="10"
     inkscape:pageopacity="0"
     inkscape:pageshadow="2"
     inkscape:window-width="690"
     inkscape:window-height="480"
     id="namedview12"
     showgrid="false"
     fit-margin-top="0"
     fit-margin-left="0"
     fit-margin-right="0"
     fit-margin-bottom="0"
     inkscape:zoom="0.568"
     inkscape:cx="-36.754282"
     inkscape:cy="-76.100002"
     inkscape:window-x="0"
     inkscape:window-y="0"
     inkscape:window-maximized="0"
     inkscape:current-layer="svg" />
  <g
     id="svgg"
     transform="translate(-248,-28)">
    <path
       id="path0"
       d=""
       inkscape:connector-curvature="0"
       style="fill:#000000;fill-rule:evenodd;stroke:none" />
    <path
       id="path1"
       d="m 272,34.291 c -1.188,0.216 -2.4,1.215 -2.4,1.979 0,0.384 -0.3,0.47 -1.016,0.29 -1.313,-0.329 -2.584,0.779 -2.584,2.253 0,1.425 0.835,2.072 2.474,1.914 1.383,-0.132 3.497,1.839 3.509,3.273 0.003,0.446 -0.076,0.473 -0.311,0.102 -0.638,-1.004 -4.204,-1.362 -4.821,-0.483 -0.649,0.924 -1.251,1.018 -1.251,0.194 0,-0.323 -0.495,-0.856 -1.1,-1.184 -0.784,-0.426 -0.899,-0.602 -0.4,-0.613 1.067,-0.024 0.834,-1.096 -0.3,-1.38 -0.55,-0.138 -1,-0.518 -1,-0.844 0,-0.552 -0.392,-0.728 -1.1,-0.492 -0.165,0.055 -0.248,0.257 -0.184,0.449 0.064,0.192 -0.143,0.249 -0.461,0.128 -0.798,-0.307 -1.14,0.139 -0.603,0.786 0.346,0.416 0.277,0.543 -0.303,0.562 -0.613,0.021 -0.579,0.094 0.188,0.401 0.515,0.207 1.128,0.257 1.362,0.113 0.252,-0.156 0.307,-0.072 0.135,0.206 -0.16,0.258 0.069,1.051 0.507,1.762 l 0.798,1.293 -2.77,2.315 c -1.7,1.42 -2.769,2.617 -2.769,3.1 0,0.432 -0.199,0.785 -0.443,0.785 -0.243,0 -0.339,-0.27 -0.212,-0.6 0.126,-0.33 0.056,-0.6 -0.158,-0.6 -0.213,0 -0.387,0.45 -0.387,1 0,0.712 0.217,1 0.751,1 1.278,0 1.879,1.083 1.087,1.958 -0.987,1.091 -0.37,4.686 0.78,4.548 0.674,-0.081 0.658,-0.031 -0.118,0.361 -1.23,0.622 -1.139,1.28 0.134,0.96 0.598,-0.15 0.937,-0.103 0.804,0.112 -0.377,0.609 -2.862,0.908 -3.989,0.48 -1.051,-0.4 -1.49,-1.579 -0.549,-1.475 0.893,0.1 0.927,-0.74 0.034,-0.867 -0.588,-0.084 -0.949,0.14 -1.127,0.7 -0.143,0.453 -0.429,0.823 -0.634,0.823 -0.937,0 -0.194,0.69 1.727,1.602 2.878,1.368 2.845,1.357 2.54,0.862 -0.162,-0.262 0.321,-0.688 1.193,-1.052 1.488,-0.622 3.557,-0.855 2.717,-0.306 -1.108,0.724 0.175,2.19 1.753,2.003 0.823,-0.098 2.055,0.054 2.737,0.337 0.892,0.37 1.361,0.393 1.674,0.08 0.239,-0.239 1.167,-0.435 2.061,-0.435 1.07,0 1.625,-0.178 1.625,-0.522 0,-0.801 -0.697,-1.052 -1.592,-0.573 -0.669,0.358 -0.813,0.309 -0.836,-0.282 -0.026,-0.651 -0.055,-0.647 -0.326,0.044 -0.169,0.431 -0.764,0.808 -1.379,0.874 -0.698,0.074 -0.986,-0.039 -0.813,-0.319 0.147,-0.239 -0.061,-0.675 -0.464,-0.97 -1.149,-0.84 -0.637,-0.908 3.051,-0.409 3.178,0.43 3.431,0.532 3.309,1.324 -0.201,1.306 0.923,2.068 1.628,1.104 0.344,-0.47 0.425,-0.984 0.215,-1.359 -0.283,-0.504 0.232,-0.679 3.129,-1.068 3.729,-0.5 4.081,-0.449 4.072,0.589 -0.005,0.579 -0.061,0.59 -0.383,0.079 -0.307,-0.485 -0.473,-0.501 -0.891,-0.083 -0.418,0.418 -0.402,0.591 0.083,0.929 0.445,0.31 0.292,0.351 -0.603,0.161 -0.66,-0.139 -1.449,-0.559 -1.754,-0.932 -0.52,-0.637 -0.539,-0.636 -0.319,0.005 0.193,0.562 0.079,0.625 -0.646,0.357 -1.116,-0.412 -1.881,-0.15 -1.881,0.643 0,0.464 0.281,0.561 1.134,0.39 0.624,-0.125 1.571,0 2.106,0.277 0.667,0.347 1.345,0.392 2.166,0.144 0.657,-0.199 1.872,-0.339 2.701,-0.311 1.457,0.049 2.59,-1.118 2.022,-2.083 -0.285,-0.485 0.865,-0.345 2.386,0.29 0.776,0.325 1.504,0.82 1.618,1.1 0.143,0.354 0.307,0.378 0.537,0.081 0.181,-0.237 1.184,-0.777 2.229,-1.2 1.851,-0.752 2.46,-1.371 1.348,-1.371 -0.305,0 -0.648,-0.36 -0.763,-0.8 -0.255,-0.977 -1.884,-1.109 -1.884,-0.153 0,0.455 0.243,0.583 0.823,0.431 1.178,-0.308 0.766,0.601 -0.567,1.251 -1.139,0.555 -3.252,0.325 -3.702,-0.403 -0.161,-0.261 0.056,-0.313 0.596,-0.142 0.504,0.16 0.85,0.096 0.85,-0.157 0,-0.235 -0.27,-0.427 -0.6,-0.427 -0.354,0 -0.603,-0.369 -0.606,-0.9 -0.011,-1.621 -1.645,-2.587 -2.15,-1.271 -0.297,0.774 0.063,1.476 0.59,1.15 0.209,-0.129 0.252,-0.447 0.096,-0.707 -0.175,-0.29 -0.033,-0.269 0.369,0.057 0.85,0.688 0.482,1.643 -0.531,1.379 -0.625,-0.164 -0.726,-0.056 -0.51,0.544 0.159,0.441 0.12,0.61 -0.094,0.412 -0.2,-0.185 -0.364,-0.716 -0.364,-1.18 0,-0.563 -0.323,-0.921 -0.97,-1.075 -0.534,-0.127 -1.043,-0.496 -1.131,-0.82 -0.123,-0.454 -0.077,-0.471 0.203,-0.074 0.278,0.393 0.544,0.275 1.126,-0.5 0.635,-0.846 0.981,-0.975 2.067,-0.771 1.551,0.291 1.586,0.099 0.485,-2.694 -0.653,-1.659 -0.714,-2.145 -0.3,-2.405 0.565,-0.355 1.516,2.111 1.598,4.141 0.023,0.598 0.203,0.988 0.399,0.867 0.198,-0.123 0.234,0.263 0.081,0.873 -0.211,0.841 -0.155,1.019 0.247,0.771 0.386,-0.239 0.463,-0.099 0.295,0.54 -0.124,0.475 -0.07,0.863 0.119,0.863 0.649,0 1.211,-3.006 1.346,-7.2 0.123,-3.837 0.111,-3.923 -0.141,-1 l -0.275,3.2 -0.074,-3.124 c -0.041,-1.718 -0.21,-3.04 -0.375,-2.938 -0.165,0.101 -0.327,-0.68 -0.359,-1.737 -0.065,-2.123 -0.933,-4.256 -1.668,-4.101 -0.26,0.055 -0.473,-0.08 -0.473,-0.3 0,-1.581 1.932,0.675 2.629,3.068 0.534,1.833 0.551,1.85 0.336,0.332 -0.447,-3.17 -3.365,-5.991 -3.365,-3.254 0,0.551 -0.203,1.509 -0.45,2.128 l -0.451,1.126 -0.316,-1.104 c -0.174,-0.608 -0.138,-1.748 0.079,-2.535 0.655,-2.373 -1.033,-3.266 -2.962,-1.568 -1.216,1.071 -1.42,1.807 -0.5,1.807 0.862,0 0.739,0.921 -0.2,1.507 -0.44,0.275 -0.8,0.781 -0.8,1.124 0,0.419 -0.296,0.583 -0.9,0.497 -0.732,-0.104 -0.9,-0.382 -0.9,-1.491 0,-0.87 -0.217,-1.423 -0.6,-1.53 -0.533,-0.149 -0.533,-0.116 0,0.297 0.491,0.381 0.42,0.425 -0.389,0.245 -1.104,-0.246 -2.807,1.036 -2.817,2.121 -0.005,0.512 -0.071,0.527 -0.354,0.08 -0.655,-1.034 1.407,-3.457 2.817,-3.31 1.505,0.158 2.743,-0.89 2.743,-2.322 0,-1.453 -0.691,-2.018 -2.47,-2.018 -1.273,0 -1.607,-0.188 -2.13,-1.2 -0.639,-1.235 -1.447,-1.41 -4.2,-0.909 m 8.155,3.136 c 0.121,0.315 0.046,0.573 -0.168,0.573 -0.213,0 -0.387,-0.191 -0.387,-0.424 0,-0.233 -0.168,-0.32 -0.372,-0.193 -0.205,0.126 -0.463,0.084 -0.573,-0.093 -0.11,-0.178 0.133,-0.349 0.54,-0.38 0.407,-0.03 0.839,0.202 0.96,0.517 m -10.624,1.379 c -0.089,0.267 -0.392,-0.031 -0.675,-0.661 -0.48,-1.072 -0.47,-1.103 0.162,-0.484 0.371,0.363 0.602,0.879 0.513,1.145 m 37.87,-0.306 c -2.973,2.565 -1.318,8.3 2.395,8.3 2.736,0 3.404,-0.548 3.404,-2.79 V 42 h -1.4 c -0.978,0 -1.4,0.181 -1.4,0.6 0,0.33 0.27,0.6 0.6,0.6 0.373,0 0.6,0.378 0.6,1 0,1.162 -2.305,1.479 -3.17,0.436 -1.927,-2.321 -0.531,-5.642 2.24,-5.329 1.35,0.152 1.846,0.055 2.018,-0.393 0.587,-1.528 -3.614,-1.857 -5.287,-0.414 M 322,42.1 v 4.5 l 2.145,0.093 c 2.705,0.116 3.655,-0.739 3.655,-3.293 0,-2.324 -1.093,-3.555 -2.895,-3.262 -1.261,0.205 -1.305,0.166 -1.305,-1.163 0,-1.108 -0.155,-1.375 -0.8,-1.375 -0.753,0 -0.8,0.267 -0.8,4.5 m 7.6,-3.7 c 0,0.587 0.267,0.8 1,0.8 0.733,0 1,-0.213 1,-0.8 0,-0.587 -0.267,-0.8 -1,-0.8 -0.733,0 -1,0.213 -1,0.8 m -54.933,1.8 c 0,0.33 -0.24,0.6 -0.534,0.6 -0.293,0 -0.546,0.405 -0.561,0.9 -0.027,0.859 -0.044,0.863 -0.372,0.1 -0.46,-1.07 -0.476,-1.494 -0.045,-1.228 0.195,0.121 0.577,-0.049 0.849,-0.376 0.614,-0.74 0.663,-0.74 0.663,0.004 m 40.952,0.504 c -2.261,1.831 -1.025,6.096 1.766,6.096 2.291,0 3.209,-1.286 3.059,-4.284 -0.106,-2.115 -3.074,-3.23 -4.825,-1.812 m 13.359,-0.269 c -0.147,0.239 -0.068,0.635 0.177,0.88 0.245,0.245 0.445,1.579 0.445,2.965 0,2.421 0.039,2.52 1,2.52 0.988,0 1,-0.04 1,-3.4 V 40 h -1.176 c -0.647,0 -1.298,0.196 -1.446,0.435 m 4.804,0.547 c -2.734,2.734 0.306,6.987 3.985,5.575 1.216,-0.466 0.747,-1.48 -0.563,-1.218 -1.441,0.288 -2.404,-0.025 -2.404,-0.782 0,-0.404 0.564,-0.557 2.05,-0.557 h 2.05 l -0.251,-1.3 c -0.502,-2.595 -3.08,-3.505 -4.867,-1.718 M 340,43.4 c 0,3.106 0.068,3.4 0.781,3.4 0.678,0 0.796,-0.328 0.9,-2.5 0.107,-2.245 0.211,-2.513 1.019,-2.628 0.578,-0.082 0.9,-0.404 0.9,-0.9 0,-0.865 -0.481,-0.971 -1.626,-0.358 -0.534,0.286 -0.774,0.286 -0.774,0 0,-0.228 -0.27,-0.414 -0.6,-0.414 -0.486,0 -0.6,0.644 -0.6,3.4 m 4.8,0 c 0,3.133 0.063,3.4 0.8,3.4 0.719,0 0.8,-0.267 0.8,-2.627 v -2.626 l 1.1,0.126 c 1.054,0.122 1.105,0.231 1.219,2.627 0.197,4.141 1.681,3.692 1.681,-0.509 0,-3.493 -0.84,-4.404 -3.228,-3.503 C 346.521,40.534 346,40.568 346,40.365 346,40.164 345.73,40 345.4,40 c -0.486,0 -0.6,0.644 -0.6,3.4 m 8.492,-3.132 c -1.657,0.666 -2.042,4.241 -0.625,5.806 1.377,1.522 4.582,0.577 5.105,-1.505 0.738,-2.941 -1.801,-5.379 -4.48,-4.301 M 318.32,41.68 c 1.223,1.223 0.183,4.241 -1.269,3.684 -1.165,-0.447 -0.675,-4.164 0.549,-4.164 0.132,0 0.456,0.216 0.72,0.48 m 7.2,0 c 1.223,1.223 0.183,4.241 -1.269,3.684 -0.8,-0.307 -0.927,-3.586 -0.151,-3.899 0.782,-0.316 0.908,-0.297 1.42,0.215 m 11.28,0.563 c 0,0.327 -0.412,0.557 -1,0.557 -1.039,0 -1.417,-0.988 -0.5,-1.308 0.745,-0.259 1.5,0.118 1.5,0.751 m 18.72,-0.563 c 1.283,1.283 0.025,4.637 -1.32,3.52 -1.046,-0.868 -0.576,-4 0.6,-4 0.132,0 0.456,0.216 0.72,0.48 m -84.72,3.036 c 0.11,0.108 -0.299,0.077 -0.908,-0.069 -0.61,-0.147 -1.465,-0.076 -1.9,0.157 -0.855,0.458 -1.07,0.034 -0.348,-0.688 0.411,-0.411 2.54,-0.007 3.156,0.6 m 6.3,0.343 c 0.935,0.122 1.697,0.248 1.694,0.281 -0.003,0.033 -0.252,0.766 -0.552,1.629 -0.469,1.348 -0.462,1.817 0.054,3.33 0.444,1.303 0.49,1.987 0.179,2.631 -0.361,0.746 -0.434,0.586 -0.513,-1.13 l -0.092,-2 -0.235,2.197 c -0.357,3.335 -1.666,3.447 -1.561,0.132 l 0.074,-2.329 0.147,2.1 c 0.193,2.758 0.794,2.693 0.968,-0.104 l 0.137,-2.205 -1.904,0.068 c -1.892,0.068 -1.901,0.074 -1.3,0.991 0.771,1.176 0.773,1.588 0.004,0.95 -0.522,-0.433 -0.61,-0.165 -0.677,2.051 l -0.077,2.549 -0.143,-2.532 c -0.12,-2.122 -0.234,-2.457 -0.705,-2.066 -0.795,0.659 -1.507,0.08 -1.291,-1.049 0.159,-0.834 0.026,-0.957 -1.062,-0.987 L 269,49.531 l 1.112,-0.334 c 0.612,-0.184 1.602,-0.195 2.2,-0.024 0.598,0.171 1.448,0.17 1.888,-0.002 0.44,-0.172 1.411,-0.211 2.158,-0.087 0.968,0.162 1.276,0.094 1.072,-0.235 -0.157,-0.254 -0.423,-0.377 -0.592,-0.273 -0.169,0.105 -0.831,0.033 -1.472,-0.159 -1.101,-0.329 -1.066,-0.354 0.634,-0.445 l 1.8,-0.098 -2,-0.274 -2,-0.274 1.886,-0.063 c 1.436,-0.048 1.988,-0.254 2.314,-0.863 0.418,-0.78 0.304,-0.8 -4.653,-0.8 -2.794,0 -4.952,-0.128 -4.796,-0.284 0.156,-0.157 1.671,-0.272 3.367,-0.256 2.391,0.022 2.768,-0.043 1.682,-0.29 -1.528,-0.349 -1.143,-0.317 3.5,0.289 m -9.17,1.546 c 0.455,0.999 0.452,1.001 -0.533,0.356 -0.544,-0.357 -0.891,-0.809 -0.77,-1.005 0.38,-0.615 0.828,-0.392 1.303,0.649 m 5.27,0.895 c 0.001,1.048 -0.085,1.097 -1.827,1.039 -2.509,-0.083 -2.757,-0.525 -0.34,-0.602 L 273,47.874 271,47.6 l -2,-0.274 1.9,-0.063 c 1.045,-0.035 1.9,-0.243 1.9,-0.463 0,-0.22 0.09,-0.4 0.2,-0.4 0.11,0 0.2,0.495 0.2,1.1 m 5.856,1.3 c 0.108,0 0.527,-0.177 0.93,-0.393 0.927,-0.496 1.411,0.489 0.755,1.538 -0.538,0.862 -2.378,-0.632 -2.295,-1.863 0.043,-0.623 0.063,-0.621 0.23,0.018 0.1,0.385 0.271,0.7 0.38,0.7 m -11.075,0.658 c 0.546,0.925 0.803,1.914 0.704,2.7 -0.148,1.171 -0.161,1.158 -0.221,-0.234 -0.073,-1.689 -0.682,-2.329 -1.065,-1.121 -0.728,2.295 1.116,4.397 3.857,4.397 0.484,0 1.221,0.308 1.637,0.684 0.605,0.548 0.821,0.579 1.081,0.158 0.179,-0.29 1.203,-0.687 2.276,-0.883 1.955,-0.358 3.562,-1.63 3.211,-2.543 -0.095,-0.249 0.167,-0.478 0.583,-0.509 0.417,-0.032 0.756,0.2 0.756,0.518 0,0.316 0.18,0.575 0.4,0.575 0.22,0 0.4,0.371 0.4,0.824 0,0.453 0.18,0.712 0.4,0.576 0.22,-0.136 0.4,0.011 0.4,0.326 0,0.441 -0.592,0.568 -2.554,0.55 -1.906,-0.018 -2.729,0.15 -3.243,0.664 -0.554,0.554 -0.803,0.592 -1.281,0.195 -0.492,-0.408 -0.57,-0.363 -0.458,0.262 0.144,0.797 -2.644,1.282 -3.103,0.539 -0.115,-0.185 -0.018,-0.336 0.215,-0.336 0.233,0 0.424,-0.192 0.424,-0.427 0,-0.248 -0.343,-0.318 -0.819,-0.167 -0.451,0.143 -1.062,0.059 -1.358,-0.187 -0.856,-0.71 -4.623,-1.043 -4.623,-0.408 0,0.287 -0.109,0.413 -0.242,0.28 -0.133,-0.133 -0.628,0.172 -1.1,0.678 -1.255,1.345 -2.508,1.648 -2.764,0.668 -0.238,-0.909 -1.894,-0.726 -1.894,0.21 0,1.167 -0.724,0.483 -0.99,-0.935 -0.199,-1.058 -0.131,-1.538 0.233,-1.66 0.281,-0.093 0.935,-0.594 1.452,-1.111 1.132,-1.131 1.161,-1.136 1.404,-0.207 0.332,1.271 2.511,2.577 3.105,1.861 0.406,-0.489 0.366,-0.595 -0.224,-0.595 -1.956,0 -3.143,-3.641 -1.369,-4.203 0.446,-0.142 1.089,-0.683 1.43,-1.204 0.536,-0.818 1.07,-1.142 2.219,-1.347 0.144,-0.025 0.648,0.61 1.121,1.412 M 310,50.6 c 0,1.321 -0.076,1.4 -1.338,1.4 -2.255,0 -3.381,2.32 -2.488,5.123 0.313,0.98 2.004,1.861 2.722,1.417 0.237,-0.146 1.031,-0.242 1.767,-0.215 L 312,58.376 V 53.788 49.2 h -1 c -0.876,0 -1,0.173 -1,1.4 m 15.082,-0.781 c -2.791,1.561 -2.57,7.2 0.33,8.412 1.641,0.686 4.588,0.157 4.588,-0.823 0,-0.87 -0.594,-1.038 -1.972,-0.558 -2.198,0.766 -3.725,-1.531 -2.828,-4.251 0.492,-1.49 1.75,-2.026 3.338,-1.422 1.026,0.389 1.89,-0.51 1.175,-1.223 -0.68,-0.679 -3.511,-0.761 -4.631,-0.135 m 6.118,3.953 V 58.4 h 1 c 0.965,0 1,-0.091 1,-2.628 0,-3.933 1.731,-3.818 1.919,0.128 0.112,2.355 0.176,2.5 1.1,2.5 0.938,0 0.981,-0.112 0.981,-2.524 0,-3.244 -0.536,-4.023 -2.63,-3.823 -1.556,0.149 -1.57,0.138 -1.57,-1.251 0,-1.149 -0.162,-1.425 -0.9,-1.53 -0.889,-0.126 -0.9,-0.07 -0.9,4.5 M 338.8,50 c 0,0.587 0.267,0.8 1,0.8 0.733,0 1,-0.213 1,-0.8 0,-0.587 -0.267,-0.8 -1,-0.8 -0.733,0 -1,0.213 -1,0.8 m 3.6,3.586 c 0,4.599 0.496,5.723 2.231,5.057 0.757,-0.29 0.732,-1.443 -0.031,-1.443 -0.493,0 -0.6,-0.711 -0.6,-4 0,-3.733 -0.053,-4 -0.8,-4 -0.751,0 -0.8,0.267 -0.8,4.386 m -70.339,-3.632 c -0.297,0.188 -0.476,0.671 -0.399,1.074 0.121,0.627 0.242,0.578 0.849,-0.348 0.713,-1.088 0.546,-1.357 -0.45,-0.726 m -2.574,3.146 c -0.092,0.605 -0.167,0.11 -0.167,-1.1 0,-1.21 0.075,-1.705 0.167,-1.1 0.091,0.605 0.091,1.595 0,2.2 m 1.313,-0.9 c 0,1.21 -0.135,2.2 -0.3,2.201 -0.165,0 -0.238,-0.99 -0.163,-2.2 0.177,-2.84 0.463,-2.84 0.463,-10e-4 m 43.023,0.689 c -2.028,2.895 0.354,6.436 3.723,5.535 1.584,-0.423 1.371,-1.456 -0.266,-1.292 -1.27,0.128 -2.48,-0.449 -2.48,-1.181 0,-0.193 0.9,-0.351 2,-0.351 1.931,0 2,-0.039 2,-1.138 0,-2.342 -3.634,-3.49 -4.977,-1.573 M 338.4,52.6 c 0,0.33 0.18,0.6 0.4,0.6 0.226,0 0.4,1.133 0.4,2.6 0,2.333 0.082,2.6 0.8,2.6 0.733,0 0.8,-0.267 0.8,-3.2 V 52 h -1.2 c -0.8,0 -1.2,0.2 -1.2,0.6 m 8.731,-0.185 c -2.949,1.721 -0.261,6.939 3.111,6.037 1.921,-0.514 1.707,-1.53 -0.313,-1.488 -1.32,0.028 -1.736,-0.122 -1.846,-0.664 -0.12,-0.593 0.168,-0.7 1.888,-0.7 2.214,0 2.312,-0.149 1.449,-2.213 -0.614,-1.471 -2.645,-1.932 -4.289,-0.972 M 309.922,55.1 c -0.146,2.273 -1.664,3.067 -2.151,1.126 -0.435,-1.733 0.103,-3.026 1.259,-3.026 0.96,0 1.007,0.101 0.892,1.9 m 7.203,-1 c 0.104,0.544 -0.141,0.7 -1.096,0.7 -1.332,0 -1.35,-0.019 -0.978,-0.988 0.327,-0.853 1.898,-0.634 2.074,0.288 m 32.8,0.005 c 0.099,0.515 -0.133,0.695 -0.896,0.695 -0.978,0 -1.377,-0.719 -0.749,-1.347 0.482,-0.482 1.505,-0.077 1.645,0.652 m -80.725,2.49 c 0,0.107 -0.675,0.502 -1.5,0.879 -0.825,0.376 -1.635,0.753 -1.8,0.838 -0.165,0.085 -0.3,-0.008 -0.3,-0.206 0,-0.199 0.585,-0.652 1.3,-1.008 1.304,-0.649 2.3,-0.867 2.3,-0.503 m 11.145,0.628 c 1.61,0.982 1.463,1.447 -0.185,0.587 -0.638,-0.333 -1.374,-0.606 -1.636,-0.608 -0.262,-10e-4 -0.588,-0.182 -0.724,-0.402 -0.428,-0.693 1.143,-0.432 2.545,0.423 m -8.216,1.277 c 0.699,0.672 0.674,0.7 -0.634,0.7 -0.944,0 -1.362,-0.184 -1.362,-0.6 0,-0.33 0.17,-0.6 0.376,-0.6 0.207,0 0.267,-0.315 0.133,-0.7 -0.212,-0.607 -0.178,-0.62 0.257,-0.1 0.276,0.33 0.829,0.915 1.23,1.3 m -11.184,-0.7 c -0.152,0.396 0.022,0.61 0.512,0.628 0.737,0.028 -0.243,0.658 -1.157,0.744 -0.371,0.035 -0.398,-1.34 -0.033,-1.705 0.486,-0.486 0.912,-0.277 0.678,0.333 m 15.571,0.6 c 0.175,0.671 0.012,0.8 -1.015,0.8 -1.2,0 -1.21,-0.017 -0.501,-0.8 0.398,-0.44 0.855,-0.8 1.015,-0.8 0.161,0 0.386,0.36 0.501,0.8 m -7.916,0 c 0.136,0.22 -0.123,0.4 -0.576,0.4 -0.453,0 -0.824,-0.18 -0.824,-0.4 0,-0.22 0.259,-0.4 0.576,-0.4 0.317,0 0.688,0.18 0.824,0.4 m 11.2,0 c -0.136,0.22 -0.607,0.4 -1.047,0.4 -0.44,0 -0.689,-0.18 -0.553,-0.4 0.136,-0.22 0.607,-0.4 1.047,-0.4 0.44,0 0.689,0.18 0.553,0.4 m 4.296,1.341 c 0.281,-0.174 0.307,-0.072 0.076,0.297 -0.193,0.309 -0.356,0.817 -0.361,1.128 -0.006,0.311 -0.263,0.65 -0.572,0.753 -0.418,0.14 -0.496,-0.054 -0.305,-0.765 0.14,-0.525 0.272,-1.224 0.292,-1.554 0.026,-0.415 0.1,-0.445 0.24,-0.098 0.111,0.277 0.395,0.384 0.63,0.239 m -1.296,0.235 c 0,0.671 -0.709,0.837 -0.946,0.222 -0.139,-0.363 0.002,-0.598 0.359,-0.598 0.323,0 0.587,0.169 0.587,0.376"
       inkscape:connector-curvature="0"
       style="fill:#ffffff;fill-rule:evenodd;stroke:none" />
    <path
       id="path2"
       d="m 300,86.2 v 58.2 h 32.2 32.2 V 86.2 28 H 332.2 300 v 58.2 m 12.358,-48.234 c 1.19,0.753 0.185,1.552 -1.688,1.341 -2.771,-0.313 -4.167,3.008 -2.24,5.329 0.865,1.043 3.17,0.726 3.17,-0.436 0,-0.622 -0.227,-1 -0.6,-1 -0.33,0 -0.6,-0.27 -0.6,-0.6 0,-0.419 0.422,-0.6 1.4,-0.6 h 1.4 v 2.01 c 0,4.141 -6.271,3.776 -7.157,-0.416 -0.874,-4.136 3.091,-7.67 6.315,-5.628 m 11.242,1.009 c 0,1.329 0.044,1.368 1.305,1.163 1.802,-0.293 2.895,0.938 2.895,3.262 0,2.554 -0.95,3.409 -3.655,3.293 L 322,46.6 v -4.5 c 0,-4.233 0.047,-4.5 0.8,-4.5 0.645,0 0.8,0.267 0.8,1.375 m 8,-0.575 c 0,0.587 -0.267,0.8 -1,0.8 -0.733,0 -1,-0.213 -1,-0.8 0,-0.587 0.267,-0.8 1,-0.8 0.733,0 1,0.213 1,0.8 m -12.075,2.416 c 1.314,1.224 1.318,4.165 0.007,5.284 -2.264,1.932 -5.406,-0.016 -4.995,-3.096 0.367,-2.755 3.095,-3.952 4.988,-2.188 M 331.6,43.4 c 0,3.36 -0.012,3.4 -1,3.4 -0.961,0 -1,-0.099 -1,-2.52 0,-1.386 -0.2,-2.72 -0.445,-2.965 C 328.483,40.643 329.103,40 330.424,40 h 1.176 v 3.4 m 5.954,-2.7 c 0.464,0.385 0.957,1.285 1.095,2 L 338.9,44 h -2.05 c -1.486,0 -2.05,0.153 -2.05,0.557 0,0.757 0.963,1.07 2.404,0.782 0.908,-0.181 1.196,-0.093 1.196,0.368 0,1.497 -3.601,1.526 -4.771,0.039 -2.392,-3.041 1.035,-7.446 3.925,-5.046 m 3.646,-0.286 c 0,0.286 0.24,0.286 0.774,0 1.145,-0.613 1.626,-0.507 1.626,0.358 0,0.496 -0.322,0.818 -0.9,0.9 -0.808,0.115 -0.912,0.383 -1.019,2.628 -0.104,2.172 -0.222,2.5 -0.9,2.5 -0.713,0 -0.781,-0.294 -0.781,-3.4 0,-2.756 0.114,-3.4 0.6,-3.4 0.33,0 0.6,0.186 0.6,0.414 m 4.8,-0.049 c 0,0.203 0.521,0.169 1.172,-0.077 2.388,-0.901 3.228,0.01 3.228,3.503 0,4.201 -1.484,4.65 -1.681,0.509 -0.114,-2.396 -0.165,-2.505 -1.219,-2.627 l -1.1,-0.126 v 2.626 c 0,2.36 -0.081,2.627 -0.8,2.627 -0.737,0 -0.8,-0.267 -0.8,-3.4 0,-2.756 0.114,-3.4 0.6,-3.4 0.33,0 0.6,0.164 0.6,0.365 m 10.394,0.032 c 0.954,0.51 1.717,2.821 1.378,4.172 -0.523,2.082 -3.728,3.027 -5.105,1.505 -2.622,-2.897 0.38,-7.468 3.727,-5.677 M 316.88,41.68 c -1.367,1.367 -0.066,4.67 1.371,3.478 1.005,-0.834 0.491,-3.958 -0.651,-3.958 -0.132,0 -0.456,0.216 -0.72,0.48 m 7.22,-0.215 c -0.776,0.313 -0.649,3.592 0.151,3.899 1.452,0.557 2.492,-2.461 1.269,-3.684 -0.512,-0.512 -0.638,-0.531 -1.42,-0.215 m 11.2,0.027 c -0.917,0.32 -0.539,1.308 0.5,1.308 0.588,0 1,-0.23 1,-0.557 0,-0.633 -0.755,-1.01 -1.5,-0.751 m 18.78,0.188 c -1.283,1.283 -0.025,4.637 1.32,3.52 1.046,-0.868 0.576,-4 -0.6,-4 -0.132,0 -0.456,0.216 -0.72,0.48 M 312,53.788 v 4.588 l -1.337,-0.051 c -0.736,-0.027 -1.53,0.069 -1.767,0.215 -0.718,0.444 -2.409,-0.437 -2.722,-1.417 C 305.281,54.32 306.407,52 308.662,52 309.924,52 310,51.921 310,50.6 c 0,-1.227 0.124,-1.4 1,-1.4 h 1 v 4.588 m 17.713,-3.834 c 0.715,0.713 -0.149,1.612 -1.175,1.223 -1.588,-0.604 -2.846,-0.068 -3.338,1.422 -0.897,2.72 0.63,5.017 2.828,4.251 1.378,-0.48 1.972,-0.312 1.972,0.558 0,0.98 -2.947,1.509 -4.588,0.823 -2.9,-1.212 -3.121,-6.851 -0.33,-8.412 1.12,-0.626 3.951,-0.544 4.631,0.135 M 333,50.802 c 0,1.389 0.014,1.4 1.57,1.251 2.094,-0.2 2.63,0.579 2.63,3.823 0,2.412 -0.043,2.524 -0.981,2.524 -0.924,0 -0.988,-0.145 -1.1,-2.5 -0.188,-3.946 -1.919,-4.061 -1.919,-0.128 0,2.537 -0.035,2.628 -1,2.628 h -1 v -4.628 c 0,-4.57 0.011,-4.626 0.9,-4.5 0.738,0.105 0.9,0.381 0.9,1.53 M 340.8,50 c 0,0.587 -0.267,0.8 -1,0.8 -0.733,0 -1,-0.213 -1,-0.8 0,-0.587 0.267,-0.8 1,-0.8 0.733,0 1,0.213 1,0.8 m 3.2,3.2 c 0,3.289 0.107,4 0.6,4 0.763,0 0.788,1.153 0.031,1.443 -0.313,0.12 -0.943,0.018 -1.4,-0.226 -1.258,-0.673 -1.287,-9.217 -0.031,-9.217 0.747,0 0.8,0.267 0.8,4 m -25.931,-0.538 c 1.607,1.455 0.967,2.938 -1.269,2.938 -1.1,0 -2,0.158 -2,0.351 0,0.732 1.21,1.309 2.48,1.181 1.637,-0.164 1.85,0.869 0.266,1.292 -2.555,0.684 -4.346,-0.645 -4.346,-3.224 0,-2.849 2.871,-4.345 4.869,-2.538 M 340.8,55.2 c 0,2.933 -0.067,3.2 -0.8,3.2 -0.718,0 -0.8,-0.267 -0.8,-2.6 0,-1.467 -0.174,-2.6 -0.4,-2.6 -0.22,0 -0.4,-0.27 -0.4,-0.6 0,-0.4 0.4,-0.6 1.2,-0.6 h 1.2 v 3.2 m 10.62,-1.813 c 0.863,2.064 0.765,2.213 -1.449,2.213 -1.72,0 -2.008,0.107 -1.888,0.7 0.11,0.542 0.526,0.692 1.846,0.664 2.02,-0.042 2.234,0.974 0.313,1.488 -2.748,0.735 -4.708,-1.422 -4.043,-4.45 0.546,-2.484 4.258,-2.922 5.221,-0.615 M 307.764,54.2 c -0.421,1.677 0.128,3.071 1.15,2.926 1.454,-0.207 1.564,-3.926 0.116,-3.926 -0.749,0 -1.081,0.262 -1.266,1 m 7.287,-0.388 c -0.372,0.969 -0.354,0.988 0.978,0.988 0.955,0 1.2,-0.156 1.096,-0.7 -0.176,-0.922 -1.747,-1.141 -2.074,-0.288 m 33.229,-0.359 c -0.628,0.628 -0.229,1.347 0.749,1.347 0.763,0 0.995,-0.18 0.896,-0.695 -0.14,-0.729 -1.163,-1.134 -1.645,-0.652"
       inkscape:connector-curvature="0"
       style="fill:#c53f40;fill-rule:evenodd;stroke:none" />
    <path
       id="path3"
       d=""
       inkscape:connector-curvature="0"
       style="fill:#00ffff;fill-rule:evenodd;stroke:none" />
    <path
       id="path4"
       d="m 248,86.2 v 58.2 h 25.8 25.8 V 86.2 28 H 273.8 248 v 58.2 m 28.2,-51 c 0.523,1.012 0.857,1.2 2.13,1.2 1.779,0 2.47,0.565 2.47,2.018 0,1.49 -1.267,2.522 -2.819,2.294 -1.002,-0.147 -1.314,-0.014 -1.574,0.669 -0.178,0.468 -0.61,1.09 -0.961,1.381 -0.35,0.291 -0.538,0.689 -0.417,0.885 0.121,0.196 0.686,-0.197 1.255,-0.874 0.827,-0.982 1.244,-1.181 2.075,-0.989 0.824,0.19 0.916,0.148 0.441,-0.202 -0.533,-0.394 -0.533,-0.424 0,-0.275 0.383,0.107 0.6,0.66 0.6,1.53 0,1.109 0.168,1.387 0.9,1.491 0.604,0.086 0.9,-0.078 0.9,-0.497 0,-0.343 0.36,-0.849 0.8,-1.124 0.939,-0.586 1.062,-1.507 0.2,-1.507 -0.97,0 -0.639,-0.92 0.744,-2.066 1.847,-1.529 3.368,-0.529 2.727,1.792 -0.224,0.813 -0.263,1.957 -0.088,2.57 l 0.316,1.104 0.451,-1.126 c 0.247,-0.619 0.45,-1.577 0.45,-2.128 0,-1.799 1.641,-1.065 2.8,1.254 1.591,3.182 1.269,15.8 -0.403,15.8 -0.204,0 -0.268,-0.27 -0.142,-0.6 0.127,-0.331 0.012,-0.6 -0.256,-0.6 -0.323,0 -0.399,-0.347 -0.226,-1.034 0.143,-0.57 0.1,-0.935 -0.096,-0.813 -0.196,0.121 -0.376,-0.269 -0.399,-0.867 -0.083,-2.079 -1.031,-4.496 -1.619,-4.128 -0.443,0.278 -0.388,0.686 0.3,2.242 1.19,2.691 1.123,3.156 -0.412,2.849 -1.803,-0.36 -3.687,1.746 -2.047,2.29 0.385,0.127 1.083,0.515 1.551,0.863 1.049,0.777 1.712,-0.203 0.703,-1.04 -0.33,-0.274 -0.544,-0.332 -0.477,-0.13 0.068,0.203 -0.057,0.413 -0.277,0.468 -0.22,0.055 -0.4,-0.215 -0.4,-0.6 0,-0.429 0.31,-0.705 0.8,-0.714 0.962,-0.016 1.386,0.505 1.394,1.714 0.003,0.531 0.252,0.9 0.606,0.9 0.33,0 0.6,0.192 0.6,0.427 0,0.257 -0.359,0.318 -0.9,0.155 -0.603,-0.182 -0.768,-0.139 -0.5,0.131 0.691,0.696 2.757,0.908 3.768,0.386 1.249,-0.643 1.572,-1.513 0.455,-1.221 -0.58,0.152 -0.823,0.024 -0.823,-0.431 0,-0.956 1.629,-0.824 1.884,0.153 0.115,0.44 0.458,0.8 0.763,0.8 1.112,0 0.503,0.619 -1.348,1.371 -1.045,0.423 -2.048,0.963 -2.229,1.2 -0.23,0.297 -0.394,0.273 -0.537,-0.081 -0.513,-1.269 -4.17,-2.12 -3.938,-0.916 0.204,1.058 -0.65,1.666 -2.254,1.606 -0.738,-0.027 -1.878,0.113 -2.535,0.312 -0.822,0.25 -1.498,0.205 -2.166,-0.142 -0.535,-0.277 -1.501,-0.398 -2.147,-0.269 -1,0.2 -1.151,0.123 -1.018,-0.523 0.112,-0.544 0.462,-0.737 1.241,-0.683 0.596,0.042 1.084,-0.093 1.084,-0.3 0,-0.206 -0.731,-0.375 -1.625,-0.375 -1.314,0 -1.609,0.134 -1.539,0.7 0.122,0.987 -0.427,2.1 -1.036,2.1 -0.613,0 -0.984,-0.828 -0.832,-1.857 0.096,-0.646 -0.339,-0.804 -3.329,-1.209 -3.686,-0.499 -4.198,-0.431 -3.049,0.409 0.466,0.341 0.613,0.728 0.405,1.064 -0.24,0.389 -0.141,0.458 0.372,0.261 0.384,-0.147 0.954,-0.268 1.266,-0.268 0.312,0 0.588,-0.315 0.613,-0.7 0.044,-0.665 0.056,-0.665 0.229,-10e-4 0.146,0.558 0.34,0.614 0.962,0.281 0.907,-0.485 1.563,-0.196 1.563,0.687 0,0.446 -0.257,0.555 -0.915,0.39 -0.504,-0.126 -1.411,0.027 -2.016,0.341 -0.846,0.439 -1.35,0.47 -2.184,0.136 -0.597,-0.239 -1.853,-0.403 -2.791,-0.365 -1.774,0.071 -3.083,-1.318 -1.944,-2.063 0.84,-0.549 -1.229,-0.316 -2.717,0.306 -0.872,0.364 -1.355,0.79 -1.193,1.052 0.305,0.495 0.338,0.506 -2.54,-0.862 -1.905,-0.905 -2.665,-1.602 -1.747,-1.602 0.195,0 0.452,-0.374 0.571,-0.832 0.157,-0.597 0.479,-0.794 1.147,-0.7 0.935,0.133 0.963,0.98 0.029,0.876 -0.951,-0.105 -0.496,1.077 0.569,1.482 1.098,0.418 3.161,0.172 3.527,-0.419 0.113,-0.183 -0.155,-0.238 -0.595,-0.123 -1.088,0.284 -1.016,-0.453 0.099,-1.017 0.776,-0.392 0.792,-0.442 0.118,-0.361 -1.081,0.13 -1.775,-3.449 -0.864,-4.455 C 258.895,53.232 258.31,52 257.18,52 c -0.565,0 -0.78,-0.275 -0.78,-1 0,-0.55 0.191,-1 0.424,-1 0.233,0 0.32,0.168 0.193,0.372 -0.126,0.205 -0.047,0.486 0.176,0.624 0.225,0.139 0.407,-0.112 0.407,-0.558 0,-0.511 1.019,-1.661 2.769,-3.123 l 2.77,-2.315 -0.798,-1.293 c -0.438,-0.711 -0.667,-1.504 -0.507,-1.762 0.172,-0.278 0.117,-0.362 -0.135,-0.206 -0.234,0.144 -0.847,0.094 -1.362,-0.113 -0.515,-0.206 -0.704,-0.387 -0.419,-0.401 0.284,-0.014 0.464,-0.255 0.4,-0.537 -0.065,-0.281 0.03,-0.506 0.21,-0.5 0.181,0.007 0.5,-0.296 0.711,-0.671 0.428,-0.766 1.561,-0.535 1.561,0.318 0,0.302 0.45,0.663 1,0.801 1.134,0.284 1.368,1.358 0.3,1.376 -0.609,0.011 -0.596,0.07 0.1,0.452 0.44,0.242 1.093,0.806 1.451,1.253 l 0.651,0.814 0.457,-0.854 c 0.476,-0.889 1.459,-0.905 4.141,-0.064 1.368,0.429 1.366,0.157 -0.011,-1.613 -0.945,-1.215 -1.284,-1.384 -2.565,-1.277 -1.222,0.101 -1.594,-0.057 -2.161,-0.923 -0.957,-1.46 0.28,-3.232 2.193,-3.141 0.756,0.036 1.244,-0.136 1.244,-0.438 0,-2.172 5.56,-3.032 6.6,-1.021 m -7.344,2.945 c 0.283,0.63 0.586,0.928 0.675,0.661 0.089,-0.266 -0.142,-0.782 -0.513,-1.145 -0.632,-0.619 -0.642,-0.588 -0.162,0.484 m 5.148,2.051 c -0.272,0.327 -0.654,0.497 -0.849,0.376 -0.431,-0.266 -0.415,0.158 0.045,1.228 0.328,0.763 0.345,0.759 0.372,-0.1 0.015,-0.495 0.268,-0.9 0.561,-0.9 0.294,0 0.534,-0.27 0.534,-0.6 0,-0.744 -0.049,-0.744 -0.663,-0.004 m 13.879,1.207 c 0.965,0.676 1.931,4.373 1.463,5.593 -0.186,0.486 -0.133,0.643 0.157,0.464 0.258,-0.159 0.512,0.103 0.614,0.634 0.163,0.846 0.178,0.839 0.229,-0.11 0.14,-2.626 -1.698,-7.184 -2.897,-7.184 -0.235,0 -0.039,0.271 0.434,0.603 m -20.416,2.864 c -0.577,0.576 -0.224,0.938 0.525,0.537 0.435,-0.233 1.29,-0.326 1.9,-0.208 0.913,0.178 0.967,0.15 0.308,-0.162 -0.957,-0.452 -2.363,-0.538 -2.733,-0.167 m 1.194,1.027 c -0.254,0.162 1.845,0.297 4.663,0.3 3.981,0.005 5.06,0.117 4.841,0.506 -0.224,0.397 -0.173,0.398 0.25,0.007 0.292,-0.272 0.433,-0.592 0.313,-0.712 -0.34,-0.34 -9.548,-0.432 -10.067,-0.101 m -2.034,0.662 c -0.121,0.196 0.226,0.648 0.77,1.005 0.985,0.645 0.988,0.643 0.533,-0.356 -0.475,-1.041 -0.923,-1.264 -1.303,-0.649 M 271,47.2 l -2,0.274 1.924,0.063 c 1.07,0.035 1.821,0.228 1.693,0.435 -0.126,0.205 -0.047,0.486 0.176,0.624 0.235,0.145 0.407,-0.181 0.407,-0.772 0,-0.563 -0.045,-0.996 -0.1,-0.961 -0.055,0.034 -1,0.186 -2.1,0.337 m 4.8,0.037 -2,0.237 1.924,0.063 c 1.41,0.046 1.848,0.196 1.641,0.563 -0.216,0.383 -0.165,0.391 0.221,0.035 0.893,-0.824 0.263,-1.141 -1.786,-0.898 m -10.1,1.175 c -0.495,0.199 -0.9,0.551 -0.9,0.781 0,0.23 -0.497,0.731 -1.104,1.113 -2.861,1.799 -1.337,4.23 3.027,4.832 1.608,0.222 3.175,0.611 3.481,0.866 0.309,0.255 0.941,0.34 1.416,0.19 0.719,-0.228 0.819,-0.146 0.613,0.502 -0.216,0.68 -0.06,0.768 1.26,0.715 1.141,-0.046 1.48,-0.216 1.397,-0.701 -0.08,-0.473 0.113,-0.582 0.741,-0.418 0.489,0.128 0.989,-0.001 1.176,-0.304 0.367,-0.592 3.57,-0.762 5.293,-0.28 0.971,0.271 1.097,0.201 1.072,-0.6 -0.027,-0.864 -0.045,-0.869 -0.372,-0.108 -0.307,0.714 -0.347,0.722 -0.372,0.076 -0.015,-0.398 -0.208,-0.612 -0.428,-0.476 -0.22,0.136 -0.4,-0.123 -0.4,-0.576 0,-0.453 -0.18,-0.824 -0.4,-0.824 -0.22,0 -0.4,-0.259 -0.4,-0.575 0,-0.316 -0.334,-0.55 -0.741,-0.519 -0.468,0.035 -0.68,0.29 -0.576,0.69 0.252,0.965 -1.126,1.961 -3.264,2.361 -1.056,0.197 -2.057,0.581 -2.226,0.854 -0.236,0.382 -0.52,0.346 -1.238,-0.158 -0.513,-0.359 -1.352,-0.653 -1.864,-0.653 -2.465,0 -4.092,-1.948 -3.523,-4.216 0.354,-1.411 1.019,-0.841 1.096,0.94 0.06,1.392 0.073,1.405 0.221,0.234 0.099,-0.786 -0.158,-1.775 -0.704,-2.7 -0.93,-1.576 -0.944,-1.583 -2.281,-1.046 m 12.732,0.088 c -0.018,0.385 0.238,0.7 0.568,0.7 0.33,0 0.6,0.191 0.6,0.424 0,0.233 -0.208,0.295 -0.462,0.138 -0.288,-0.178 -0.353,-0.11 -0.172,0.183 0.159,0.257 0.457,0.364 0.662,0.238 0.204,-0.127 0.372,0 0.372,0.282 0,0.282 0.28,0.113 0.623,-0.377 0.777,-1.109 0.384,-1.827 -0.834,-1.521 -0.555,0.139 -1.003,0.033 -1.124,-0.268 -0.12,-0.297 -0.215,-0.216 -0.233,0.201 m -3.605,0.491 c -0.755,0.273 -1.789,1.017 -2.298,1.653 -0.853,1.066 -0.925,1.089 -0.927,0.299 -10e-4,-0.472 0.313,-0.985 0.698,-1.14 1.159,-0.469 -0.799,-1.022 -2.166,-0.612 l -1.134,0.34 1.287,0.035 c 0.973,0.026 1.232,0.181 1.058,0.634 -0.423,1.1 0.149,1.885 1.029,1.414 0.733,-0.392 0.796,-0.265 0.93,1.883 l 0.145,2.303 0.075,-2.349 c 0.066,-2.038 0.155,-2.283 0.676,-1.851 0.335,0.278 0.6,0.321 0.6,0.098 0,-0.22 -0.27,-0.624 -0.6,-0.898 -0.988,-0.82 -0.7,-1.07 1.315,-1.141 l 1.915,-0.068 -0.229,2.399 c -0.126,1.319 -0.108,2.266 0.04,2.104 0.934,-1.021 0.612,-4.894 -0.408,-4.9 -0.814,-0.005 -0.906,-0.089 -0.433,-0.394 0.783,-0.506 0.142,-0.428 -1.573,0.191 M 269.32,52 c 0,1.21 0.075,1.705 0.167,1.1 0.091,-0.605 0.091,-1.595 0,-2.2 -0.092,-0.605 -0.167,-0.11 -0.167,1.1 m 20.781,-0.6 c 0.004,0.88 0.086,1.193 0.182,0.695 0.096,-0.497 0.092,-1.217 -0.008,-1.6 -0.1,-0.382 -0.179,0.025 -0.174,0.905 m -11.931,0.349 c 0.016,0.754 0.165,1.289 0.33,1.188 0.394,-0.242 0.373,-1.402 -0.037,-2.048 -0.199,-0.315 -0.312,0.015 -0.293,0.86 m -17.997,2.036 c -0.456,0.495 -1.056,0.976 -1.335,1.069 -0.363,0.121 -0.425,0.61 -0.217,1.715 l 0.289,1.545 0.694,-0.919 c 0.752,-0.997 1.996,-0.877 1.996,0.192 0,0.735 0.463,0.79 1.12,0.133 0.264,-0.264 0.48,-0.345 0.48,-0.179 0,0.165 0.423,-0.156 0.94,-0.714 0.517,-0.558 1.086,-0.882 1.264,-0.72 0.178,0.161 0.189,0.059 0.025,-0.226 -0.204,-0.354 -0.453,-0.393 -0.779,-0.123 -0.574,0.477 -3.05,-1.298 -3.05,-2.187 0,-0.783 -0.447,-0.653 -1.427,0.414 m 6.727,3.411 c -0.715,0.436 -1.3,0.876 -1.3,0.979 0,0.217 3.085,-1.127 3.471,-1.513 0.586,-0.585 -0.958,-0.206 -2.171,0.534 M 277.8,56.8 c 0.136,0.22 0.462,0.401 0.724,0.402 0.262,0.002 0.971,0.261 1.576,0.577 0.605,0.315 1.1,0.407 1.1,0.203 0,-0.204 -0.652,-0.644 -1.449,-0.977 -1.683,-0.703 -2.299,-0.768 -1.951,-0.205 m -17.666,1.027 c -0.326,0.85 0.323,1.435 1.069,0.962 0.462,-0.291 0.474,-0.378 0.054,-0.383 -0.317,-0.003 -0.447,-0.255 -0.312,-0.606 0.126,-0.33 0.05,-0.6 -0.17,-0.6 -0.22,0 -0.508,0.282 -0.641,0.627 m 10.388,0.058 c -0.807,0.282 -0.094,1.315 0.908,1.315 0.653,0 0.877,-0.176 0.727,-0.569 -0.255,-0.664 -0.956,-0.984 -1.635,-0.746 M 275,58.4 c -0.709,0.783 -0.699,0.8 0.501,0.8 1.027,0 1.19,-0.129 1.015,-0.8 -0.115,-0.44 -0.34,-0.8 -0.501,-0.8 -0.16,0 -0.617,0.36 -1.015,0.8 m -7.6,0 c 0.136,0.22 0.517,0.4 0.847,0.4 0.33,0 0.489,-0.18 0.353,-0.4 -0.136,-0.22 -0.517,-0.4 -0.847,-0.4 -0.33,0 -0.489,0.18 -0.353,0.4 m 10.8,0 c -0.136,0.22 0.123,0.4 0.576,0.4 0.453,0 0.824,-0.18 0.824,-0.4 0,-0.22 -0.259,-0.4 -0.576,-0.4 -0.317,0 -0.688,0.18 -0.824,0.4 m 4.866,1.97 c -0.311,1.554 -0.074,2.015 0.641,1.245 0.391,-0.423 0.39,-0.474 -0.007,-0.25 -0.72,0.406 -0.615,-0.17 0.2,-1.102 0.385,-0.44 0.49,-0.678 0.234,-0.529 -0.256,0.149 -0.54,0.048 -0.631,-0.225 -0.091,-0.273 -0.288,0.114 -0.437,0.861 M 279.1,60.283 c -1.389,0.215 -1.432,1.211 -0.074,1.727 1.328,0.505 1.389,0.496 1.134,-0.17 -0.296,-0.77 0.641,-1.272 1.106,-0.591 0.287,0.419 0.347,0.36 0.251,-0.244 -0.134,-0.845 -0.644,-0.997 -2.417,-0.722"
       inkscape:connector-curvature="0"
       style="fill:#0061a9;fill-rule:evenodd;stroke:none"
       sodipodi:nodetypes="ccccccccccsscccsccccscscscccccscscsccccccccccssccssccccscsccccccccscsscscccccscccsccccccccscccccccccsssccsccccccccccscccccccccccscccccccccssccccccsccccccccccsccccccccccscccccccccscccccccccccccsssscccccsccccccsscccscccccccccccccccccscccccccccccccccccccccscccsssscccsccscccccsccccccsccscccscsccsssccssscccccssccccccc" />
    <path
       id="path5"
       d=""
       inkscape:connector-curvature="0"
       style="fill:#000080;fill-rule:evenodd;stroke:none" />
    <path
       id="path6"
       d="m 299.795,86.2 c 0,32.12 0.047,45.319 0.105,29.331 0.058,-15.987 0.058,-42.267 0,-58.4 -0.058,-16.132 -0.105,-3.051 -0.105,29.069 M 269.9,48.282 c 0.495,0.096 1.305,0.096 1.8,0 0.495,-0.095 0.09,-0.173 -0.9,-0.173 -0.99,0 -1.395,0.078 -0.9,0.173 m 5.698,0.003 c 0.77,0.099 1.595,0.343 1.834,0.541 0.275,0.229 0.435,0.17 0.435,-0.161 0,-0.351 -0.602,-0.529 -1.834,-0.541 -1.486,-0.016 -1.568,0.015 -0.435,0.161 M 270.52,52 c 0,1.21 0.075,1.705 0.167,1.1 0.091,-0.605 0.091,-1.595 0,-2.2 -0.092,-0.605 -0.167,-0.11 -0.167,1.1 m 5.526,-0.124 c -0.025,1.142 0.092,2.162 0.261,2.267 0.169,0.104 0.25,-0.56 0.179,-1.477 -0.207,-2.691 -0.39,-3.019 -0.44,-0.79"
       inkscape:connector-curvature="0"
       style="fill:#5b5a5d;fill-rule:evenodd;stroke:none"
       sodipodi:nodetypes="csscccscccscccccccccc" />
    <path
       id="path7"
       d=""
       inkscape:connector-curvature="0"
       style="fill:#0000ff;fill-rule:evenodd;stroke:none" />
  </g>
</svg>
