<?xml version="1.0" encoding="UTF-8" standalone="no"?>
<svg
   xmlns:dc="http://purl.org/dc/elements/1.1/"
   xmlns:cc="http://creativecommons.org/ns#"
   xmlns:rdf="http://www.w3.org/1999/02/22-rdf-syntax-ns#"
   xmlns:svg="http://www.w3.org/2000/svg"
   xmlns="http://www.w3.org/2000/svg"
   xmlns:sodipodi="http://sodipodi.sourceforge.net/DTD/sodipodi-0.dtd"
   xmlns:inkscape="http://www.inkscape.org/namespaces/inkscape"
   id="svg"
   version="1.1"
   width="207.10518"
   height="126.37416"
   style="display:block"
   sodipodi:docname="firma.svg"
   inkscape:version="0.92.1 r15371">
  <metadata
     id="metadata9">
    <rdf:RDF>
      <cc:Work
         rdf:about="">
        <dc:format>image/svg+xml</dc:format>
        <dc:type
           rdf:resource="http://purl.org/dc/dcmitype/StillImage" />
        <dc:title></dc:title>
      </cc:Work>
    </rdf:RDF>
  </metadata>
  <defs
     id="defs7" />
  <sodipodi:namedview
     pagecolor="#ffffff"
     bordercolor="#666666"
     borderopacity="1"
     objecttolerance="10"
     gridtolerance="10"
     guidetolerance="10"
     inkscape:pageopacity="0"
     inkscape:pageshadow="2"
     inkscape:window-width="640"
     inkscape:window-height="480"
     id="namedview5"
     showgrid="false"
     fit-margin-top="0"
     fit-margin-left="0"
     fit-margin-right="0"
     fit-margin-bottom="0"
     inkscape:zoom="0.94666667"
     inkscape:cx="6.0651619"
     inkscape:cy="52.684068"
     inkscape:window-x="0"
     inkscape:window-y="0"
     inkscape:window-maximized="0"
     inkscape:current-layer="svg" />
  <g
     id="svgg"
     transform="translate(-185.33244,-29.274682)">
    <path
       id="path0"
       d="m 346.83,29.392 c -0.048,0.048 -1.171,0.169 -2.495,0.269 -1.67,0.125 -2.801,0.305 -3.688,0.585 -0.705,0.223 -1.682,0.456 -2.172,0.519 -0.49,0.063 -1.229,0.28 -1.642,0.483 -0.412,0.203 -1.119,0.46 -1.57,0.57 -0.45,0.111 -1.125,0.377 -1.5,0.592 -0.374,0.215 -0.942,0.443 -1.263,0.506 -0.321,0.063 -0.846,0.286 -1.167,0.495 -0.886,0.576 -1.992,1.197 -2.916,1.638 -0.459,0.218 -0.94,0.526 -1.07,0.684 -0.131,0.157 -0.481,0.388 -0.779,0.513 -0.297,0.124 -0.625,0.382 -0.727,0.573 -0.102,0.191 -0.279,0.348 -0.392,0.348 -0.188,0 -0.786,0.447 -2.511,1.88 -1.777,1.476 -5.344,5.298 -5.841,6.259 -0.126,0.245 -0.387,0.587 -0.58,0.762 -0.193,0.174 -0.35,0.421 -0.35,0.549 0,0.127 -0.189,0.42 -0.419,0.65 -0.23,0.231 -0.6,0.776 -0.82,1.211 -0.221,0.436 -0.52,0.891 -0.665,1.011 -0.145,0.12 -0.263,0.306 -0.263,0.412 0,0.106 -0.256,0.591 -0.569,1.076 -0.312,0.485 -0.613,1.062 -0.668,1.282 -0.055,0.219 -0.287,0.674 -0.515,1.01 -0.228,0.336 -0.415,0.743 -0.415,0.904 0,0.161 -0.229,0.73 -0.51,1.264 -0.281,0.534 -0.609,1.385 -0.728,1.892 -0.12,0.506 -0.383,1.235 -0.584,1.618 -0.202,0.384 -0.429,1.141 -0.506,1.684 -0.077,0.542 -0.295,1.291 -0.486,1.665 -0.209,0.41 -0.416,1.295 -0.521,2.233 -0.097,0.855 -0.379,2.417 -0.628,3.471 l -0.453,1.917 0.004,8.5 c 0.004,7.786 0.03,8.563 0.304,9.25 0.165,0.412 0.442,1.742 0.615,2.956 0.174,1.213 0.438,2.442 0.587,2.731 0.15,0.289 0.411,1.217 0.581,2.063 0.171,0.846 0.459,1.791 0.642,2.102 0.182,0.31 0.413,0.939 0.513,1.398 0.1,0.458 0.319,1.022 0.487,1.254 0.167,0.231 0.426,0.837 0.573,1.346 0.148,0.508 0.412,1.054 0.587,1.212 0.175,0.158 0.411,0.62 0.525,1.026 0.114,0.406 0.311,0.825 0.438,0.931 0.127,0.105 0.377,0.523 0.557,0.928 0.179,0.405 0.482,0.939 0.674,1.186 0.576,0.745 1.128,1.578 1.512,2.283 0.698,1.283 5.863,6.686 7.853,8.216 1.493,1.146 2.545,1.868 2.726,1.868 0.103,0 0.33,0.161 0.504,0.357 0.175,0.197 0.655,0.506 1.068,0.687 0.412,0.181 0.9,0.461 1.083,0.622 0.183,0.161 0.61,0.381 0.948,0.489 0.338,0.108 0.798,0.341 1.023,0.518 0.224,0.177 0.825,0.43 1.335,0.562 0.51,0.133 1.137,0.392 1.394,0.575 0.257,0.183 0.917,0.421 1.467,0.529 0.55,0.108 1.375,0.368 1.833,0.577 0.458,0.21 1.321,0.432 1.917,0.493 0.595,0.062 1.945,0.305 3,0.541 3.26,0.731 11.886,0.735 13.833,0.007 0.229,-0.085 1.361,-0.293 2.516,-0.462 1.219,-0.179 2.373,-0.447 2.75,-0.641 0.358,-0.183 1.135,-0.419 1.728,-0.524 0.592,-0.105 1.38,-0.364 1.75,-0.575 0.37,-0.212 1.063,-0.475 1.539,-0.585 0.477,-0.11 0.952,-0.302 1.055,-0.426 0.104,-0.125 0.539,-0.356 0.967,-0.513 0.771,-0.284 1.707,-0.802 2.743,-1.518 0.294,-0.204 0.929,-0.556 1.41,-0.783 0.482,-0.227 0.875,-0.475 0.875,-0.552 0,-0.077 0.244,-0.281 0.542,-0.453 0.529,-0.307 1.035,-0.692 2.361,-1.798 1.064,-0.886 5.264,-5.157 5.264,-5.352 0,-0.099 0.19,-0.37 0.422,-0.602 0.905,-0.907 2.301,-2.816 2.868,-3.923 0.142,-0.275 0.427,-0.705 0.636,-0.955 0.209,-0.25 0.427,-0.673 0.486,-0.941 0.059,-0.267 0.25,-0.616 0.424,-0.773 0.174,-0.158 0.442,-0.664 0.595,-1.125 0.153,-0.461 0.448,-1.087 0.654,-1.392 0.207,-0.304 0.427,-0.828 0.491,-1.165 0.063,-0.336 0.27,-0.822 0.46,-1.078 0.189,-0.257 0.445,-0.998 0.568,-1.647 0.123,-0.648 0.371,-1.384 0.552,-1.635 0.186,-0.258 0.435,-1.07 0.574,-1.873 0.135,-0.779 0.393,-1.754 0.575,-2.166 0.218,-0.495 0.397,-1.487 0.527,-2.917 0.108,-1.192 0.278,-2.354 0.376,-2.583 0.958,-2.22 0.978,-16.308 0.028,-18.872 -0.127,-0.342 -0.313,-1.502 -0.413,-2.577 -0.126,-1.358 -0.303,-2.243 -0.579,-2.899 -0.219,-0.52 -0.478,-1.45 -0.577,-2.067 -0.099,-0.618 -0.323,-1.404 -0.498,-1.748 -0.176,-0.344 -0.408,-0.992 -0.515,-1.44 -0.107,-0.448 -0.367,-1.116 -0.577,-1.486 -0.21,-0.369 -0.434,-0.953 -0.499,-1.297 -0.064,-0.344 -0.305,-0.903 -0.535,-1.241 -0.23,-0.339 -0.523,-0.914 -0.652,-1.278 -0.128,-0.364 -0.337,-0.778 -0.464,-0.92 -0.127,-0.142 -0.421,-0.69 -0.653,-1.217 -0.232,-0.527 -0.489,-0.958 -0.57,-0.958 -0.081,0 -0.323,-0.375 -0.537,-0.834 -0.215,-0.458 -0.451,-0.833 -0.525,-0.833 -0.075,0 -0.286,-0.296 -0.471,-0.658 -0.184,-0.361 -0.437,-0.718 -0.56,-0.791 -0.124,-0.074 -0.365,-0.359 -0.536,-0.634 -1.009,-1.627 -4.84,-5.524 -6.825,-6.943 -0.367,-0.262 -0.854,-0.631 -1.083,-0.819 -0.675,-0.555 -2.402,-1.654 -2.6,-1.655 -0.1,0 -0.315,-0.147 -0.478,-0.327 -0.163,-0.18 -0.644,-0.459 -1.068,-0.62 -0.424,-0.161 -1.025,-0.463 -1.336,-0.673 -0.311,-0.209 -0.659,-0.38 -0.775,-0.38 -0.115,0 -0.64,-0.227 -1.167,-0.504 -0.526,-0.277 -1.303,-0.588 -1.725,-0.691 -0.422,-0.103 -1.055,-0.331 -1.406,-0.506 -0.351,-0.176 -1.246,-0.426 -1.989,-0.557 -0.743,-0.13 -1.789,-0.389 -2.325,-0.575 -1.443,-0.499 -12.582,-1.165 -12.968,-0.775 m -160.629,1.616 c -0.921,0.369 -0.868,-2.493 -0.868,46.67 v 45.355 l 0.567,0.567 0.567,0.567 h 25.608 25.609 l 0.241,-0.578 c 0.405,-0.97 0.35,-9.606 -0.063,-9.98 -0.28,-0.253 -1.888,-0.276 -19.717,-0.276 -14.876,0 -19.458,-0.046 -19.612,-0.2 -0.37,-0.37 -0.28,-32.119 0.092,-32.401 0.238,-0.181 3.465,-0.222 17.558,-0.227 16.511,-0.005 17.277,-0.018 17.541,-0.31 0.505,-0.558 0.407,-9.18 -0.11,-9.666 l -0.385,-0.362 h -17.207 -17.206 l -0.241,-0.578 c -0.377,-0.903 -0.36,-27.012 0.018,-27.552 l 0.259,-0.37 h 18.212 18.211 l 0.404,-0.43 0.404,-0.43 0.049,-4.538 c 0.048,-4.408 0.039,-4.552 -0.303,-4.987 l -0.353,-0.449 -24.446,0.011 c -14.482,0.006 -24.603,0.073 -24.829,0.164 m 67.276,0.144 -0.394,0.319 v 45.835 45.836 l 0.352,0.471 0.351,0.47 25.503,0.043 c 23.559,0.039 25.52,0.021 25.732,-0.234 0.374,-0.45 0.427,-9.921 0.057,-10.29 -0.244,-0.244 -2.037,-0.269 -19.64,-0.269 -14.844,0 -19.418,-0.046 -19.571,-0.2 -0.155,-0.154 -0.2,-9.462 -0.2,-40.879 0,-36.549 -0.027,-40.717 -0.26,-41.05 -0.378,-0.541 -11.268,-0.588 -11.93,-0.052 m 99.45,8.671 c 1.229,0.089 2.265,0.257 2.667,0.431 0.361,0.157 1.321,0.423 2.134,0.591 0.813,0.168 1.612,0.426 1.774,0.574 0.163,0.147 0.754,0.406 1.313,0.575 0.559,0.17 1.248,0.503 1.53,0.74 0.283,0.238 0.604,0.433 0.714,0.433 0.196,0 1.517,0.903 2.547,1.741 0.288,0.234 0.577,0.425 0.644,0.425 0.066,0 0.974,0.882 2.017,1.959 2.609,2.692 2.652,2.74 2.89,3.187 0.116,0.218 0.465,0.73 0.777,1.138 0.311,0.408 0.566,0.839 0.566,0.959 0,0.119 0.123,0.318 0.273,0.443 0.15,0.124 0.414,0.556 0.586,0.959 0.173,0.402 0.5,0.953 0.728,1.223 0.227,0.27 0.413,0.625 0.413,0.788 0,0.164 0.218,0.707 0.485,1.207 0.267,0.5 0.573,1.242 0.68,1.648 0.108,0.407 0.342,0.993 0.522,1.302 0.18,0.31 0.434,1.122 0.564,1.805 0.131,0.683 0.386,1.482 0.568,1.775 0.203,0.329 0.4,1.107 0.514,2.029 0.102,0.822 0.263,1.795 0.357,2.162 0.583,2.261 0.65,2.881 0.75,6.916 0.119,4.828 -0.139,10.137 -0.539,11.095 -0.136,0.325 -0.363,1.43 -0.505,2.456 -0.142,1.026 -0.399,2.203 -0.571,2.616 -0.173,0.412 -0.432,1.274 -0.576,1.915 -0.144,0.64 -0.367,1.323 -0.494,1.518 -0.128,0.195 -0.358,0.795 -0.513,1.335 -0.154,0.54 -0.457,1.319 -0.673,1.732 -0.216,0.412 -0.55,1.087 -0.742,1.5 -0.642,1.38 -1.241,2.471 -1.528,2.784 -0.156,0.17 -0.381,0.534 -0.5,0.808 -0.119,0.275 -0.347,0.648 -0.508,0.829 -0.759,0.856 -1.429,1.714 -1.752,2.246 -0.358,0.588 -2.584,2.841 -3.391,3.431 -0.239,0.175 -0.874,0.656 -1.412,1.069 -1.089,0.835 -2.112,1.474 -3.236,2.02 -0.413,0.201 -0.937,0.501 -1.167,0.667 -0.229,0.165 -0.791,0.383 -1.25,0.482 -0.458,0.1 -1.221,0.365 -1.695,0.588 -0.474,0.224 -1.412,0.489 -2.083,0.589 -2.439,0.364 -3.068,0.469 -3.805,0.636 -1.157,0.262 -4.222,0.228 -4.869,-0.055 -0.301,-0.131 -1.485,-0.361 -2.631,-0.51 -1.415,-0.185 -2.324,-0.395 -2.833,-0.654 -0.413,-0.211 -1.143,-0.476 -1.623,-0.589 -0.481,-0.114 -1.057,-0.351 -1.281,-0.527 -0.224,-0.177 -0.729,-0.435 -1.122,-0.573 -0.393,-0.139 -0.867,-0.393 -1.053,-0.564 -0.186,-0.171 -0.619,-0.428 -0.963,-0.569 -0.344,-0.142 -0.625,-0.329 -0.625,-0.417 0,-0.088 -0.394,-0.385 -0.875,-0.661 -1.04,-0.597 -2.741,-2.105 -3.835,-3.402 -1.274,-1.509 -1.803,-2.174 -1.959,-2.465 -0.093,-0.175 -0.356,-0.52 -0.584,-0.765 -0.228,-0.246 -0.414,-0.535 -0.414,-0.643 0,-0.108 -0.176,-0.363 -0.392,-0.565 -0.215,-0.203 -0.489,-0.663 -0.608,-1.023 -0.119,-0.361 -0.392,-0.821 -0.608,-1.024 -0.215,-0.202 -0.392,-0.453 -0.392,-0.557 0,-0.104 -0.255,-0.71 -0.566,-1.346 -0.312,-0.636 -0.646,-1.447 -0.742,-1.801 -0.097,-0.355 -0.291,-0.772 -0.432,-0.928 -0.141,-0.156 -0.411,-0.906 -0.6,-1.667 -0.19,-0.761 -0.45,-1.545 -0.579,-1.741 -0.129,-0.197 -0.351,-1.085 -0.494,-1.974 -0.143,-0.889 -0.404,-2.088 -0.579,-2.664 -0.46,-1.509 -0.497,-1.827 -0.692,-5.882 -0.207,-4.307 -0.207,-3.392 0.002,-7.5 0.213,-4.179 0.316,-5.101 0.685,-6.175 0.163,-0.473 0.385,-1.564 0.494,-2.426 0.114,-0.901 0.362,-1.919 0.583,-2.399 0.211,-0.458 0.47,-1.252 0.575,-1.763 0.105,-0.512 0.333,-1.197 0.508,-1.522 0.174,-0.325 0.426,-1.01 0.559,-1.521 0.134,-0.511 0.397,-1.125 0.585,-1.364 0.187,-0.238 0.432,-0.71 0.542,-1.048 0.111,-0.338 0.369,-0.84 0.574,-1.115 0.205,-0.275 0.427,-0.687 0.493,-0.917 0.067,-0.229 0.297,-0.604 0.511,-0.833 0.214,-0.229 0.514,-0.717 0.667,-1.083 0.153,-0.367 0.423,-0.817 0.6,-1 0.177,-0.184 0.984,-1.121 1.793,-2.084 1.376,-1.637 4.438,-4.5 4.812,-4.5 0.092,0 0.567,-0.3 1.055,-0.666 0.488,-0.367 0.995,-0.667 1.126,-0.667 0.131,0 0.471,-0.176 0.755,-0.391 0.283,-0.216 0.815,-0.487 1.182,-0.604 0.367,-0.117 0.898,-0.351 1.181,-0.522 0.282,-0.17 1.032,-0.42 1.666,-0.554 0.634,-0.135 1.603,-0.406 2.153,-0.602 1.581,-0.564 5.439,-0.776 9.177,-0.504 M 211.345,141.12 c -1.77,0.699 -2.821,2.299 -3.401,5.177 l -0.394,1.953 0.379,1.833 c 0.427,2.063 0.555,2.412 1.2,3.277 2.457,3.3 7.335,2.867 9.407,-0.834 l 0.714,-1.276 v -3 -3 l -0.667,-1.312 c -0.5,-0.984 -0.833,-1.42 -1.333,-1.745 -0.367,-0.238 -0.879,-0.603 -1.138,-0.813 -0.464,-0.375 -3.988,-0.567 -4.767,-0.26 m 13.488,-0.007 c -1.615,0.661 -3.213,2.882 -3.5,4.865 -0.903,6.241 1.481,9.854 6.242,9.464 0.812,-0.066 1.302,-0.202 1.641,-0.452 0.473,-0.35 0.496,-0.351 1.04,-0.059 0.444,0.24 0.683,0.268 1.191,0.143 l 0.636,-0.157 0.045,-3.369 0.046,-3.369 -0.454,-0.298 c -0.786,-0.515 -4.03,-0.529 -4.622,-0.019 l -0.453,0.39 0.395,0.582 c 0.322,0.475 0.501,0.583 0.969,0.586 2.568,0.013 2.755,2.989 0.241,3.847 -3.419,1.168 -5.664,-2.311 -4.634,-7.18 0.627,-2.963 3.866,-4.323 5.69,-2.389 0.479,0.507 1.446,0.65 1.827,0.269 0.511,-0.511 0.24,-1.382 -0.67,-2.149 l -0.871,-0.735 -2.254,-0.036 c -1.24,-0.02 -2.367,0.01 -2.505,0.066 m 105.584,0.5 c -0.459,0.35 -0.894,0.732 -0.968,0.847 -0.074,0.116 -0.316,0.379 -0.537,0.584 -0.694,0.643 -1.571,3.458 -1.571,5.039 0.002,6.606 5.921,9.886 10.084,5.589 2.232,-2.304 2.431,-8.81 0.325,-10.641 -0.21,-0.183 -0.446,-0.437 -0.524,-0.565 -0.593,-0.972 -1.694,-1.381 -3.869,-1.436 l -2.107,-0.054 -0.833,0.637 m 28.416,-0.392 c -0.89,0.468 -1.833,1.124 -1.833,1.275 0,0.088 -0.216,0.405 -0.48,0.707 -1.657,1.887 -1.658,8.218 -0.003,10.061 3.231,3.596 7.53,3.066 9.639,-1.189 l 0.74,-1.492 0.01,-2.333 c 0.009,-2.059 -0.032,-2.422 -0.348,-3.083 -0.198,-0.413 -0.504,-1.089 -0.682,-1.502 -0.308,-0.719 -0.67,-1.093 -2.107,-2.177 -0.745,-0.561 -4.036,-0.739 -4.936,-0.267 m 12.667,0.466 c -3.508,2.272 -4.05,9.186 -0.961,12.274 2.418,2.418 7.684,1.916 8.465,-0.807 0.338,-1.18 -1.15,-1.635 -2.098,-0.64 -1.853,1.944 -4.972,0.937 -5.651,-1.826 -0.15,-0.607 -0.379,-1.427 -0.509,-1.822 -0.202,-0.613 -0.203,-0.805 -0.005,-1.333 0.127,-0.339 0.355,-1.141 0.507,-1.783 0.671,-2.84 3.677,-3.847 5.681,-1.905 0.77,0.747 1.795,0.418 1.87,-0.598 0.048,-0.651 0.019,-0.693 -1,-1.417 l -1.049,-0.747 -2.083,-0.049 -2.084,-0.049 -1.083,0.702 m 12.728,-0.476 c -1.182,0.684 -1.895,1.172 -1.895,1.299 0,0.08 -0.218,0.394 -0.485,0.697 -0.834,0.951 -1.536,4.783 -1.197,6.543 0.312,1.625 0.809,3.078 1.201,3.515 3.228,3.595 7.526,3.064 9.639,-1.19 l 0.741,-1.492 0.009,-2.416 c 0.008,-2.142 -0.03,-2.483 -0.331,-3 -0.187,-0.321 -0.473,-0.935 -0.635,-1.365 -0.286,-0.759 -0.825,-1.332 -2.204,-2.344 -0.711,-0.521 -4.073,-0.693 -4.843,-0.247 m -198.096,0.132 c -0.547,0.318 -0.63,1.303 -0.631,7.439 l -0.001,6.032 0.37,0.26 c 1.305,0.913 1.797,0.195 1.797,-2.623 0,-2.751 -0.108,-2.639 2.666,-2.778 1.951,-0.099 2.583,-0.318 3.469,-1.204 1.825,-1.825 1.51,-5.585 -0.55,-6.562 -0.313,-0.149 -0.658,-0.377 -0.765,-0.506 -0.235,-0.283 -5.881,-0.335 -6.355,-0.058 m 11.18,0.099 c -0.185,0.224 -0.229,1.539 -0.229,6.954 v 6.679 l 0.443,0.156 c 0.305,0.107 0.604,0.089 0.958,-0.058 L 199,154.96 v -2.319 c 0,-3.243 0.266,-3.766 1.837,-3.612 0.667,0.066 1.515,1.182 1.91,2.514 0.138,0.465 0.37,0.977 0.515,1.137 0.145,0.16 0.394,0.729 0.552,1.264 0.314,1.055 0.693,1.382 1.607,1.387 0.63,0.003 1.324,-0.448 1.109,-0.721 -0.084,-0.106 -0.248,-0.493 -0.364,-0.86 -0.116,-0.367 -0.38,-0.967 -0.587,-1.333 -0.206,-0.367 -0.47,-0.967 -0.585,-1.334 -0.115,-0.366 -0.386,-0.878 -0.601,-1.137 -0.527,-0.632 -0.533,-0.611 0.601,-1.811 1.92,-2.03 1.753,-4.958 -0.36,-6.299 l -1.051,-0.666 -3.021,-0.002 c -2.608,-0.001 -3.052,0.036 -3.25,0.274 m 37.517,0.152 c -0.25,0.658 -0.215,13.287 0.038,13.539 0.11,0.11 0.473,0.2 0.807,0.2 1.034,0 1.123,-0.238 1.187,-3.183 0.064,-2.976 0.13,-3.15 1.201,-3.15 1.119,0.001 1.799,0.448 2.156,1.417 0.169,0.458 0.407,0.945 0.529,1.083 0.123,0.137 0.351,0.7 0.507,1.25 0.156,0.55 0.411,1.15 0.567,1.333 0.156,0.184 0.412,0.54 0.569,0.792 0.323,0.52 1.589,0.653 2.152,0.226 0.387,-0.294 0.38,-0.325 -0.273,-1.323 -0.311,-0.474 -0.619,-1.049 -0.686,-1.278 -0.066,-0.229 -0.264,-0.653 -0.439,-0.941 -0.174,-0.289 -0.461,-0.945 -0.638,-1.458 l -0.321,-0.933 0.572,-0.709 c 1.441,-1.789 1.776,-3.589 0.995,-5.355 -0.228,-0.516 -0.479,-0.937 -0.558,-0.937 -0.079,0 -0.474,-0.224 -0.877,-0.497 l -0.734,-0.497 -3.295,-0.003 -3.296,-0.003 -0.163,0.427 m 15.473,-0.143 c -0.482,0.547 -1.302,2.256 -1.302,2.714 0,0.249 -0.198,0.819 -0.441,1.269 -0.242,0.449 -0.543,1.297 -0.669,1.885 -0.126,0.587 -0.368,1.3 -0.537,1.583 -0.169,0.283 -0.43,1.016 -0.579,1.629 -0.15,0.612 -0.417,1.362 -0.594,1.666 -0.485,0.835 -0.783,2.562 -0.5,2.902 0.658,0.793 2.056,-0.075 2.25,-1.398 0.261,-1.773 0.691,-2.034 3.351,-2.034 2.284,0 2.733,0.284 3.117,1.969 0.288,1.266 0.676,1.697 1.525,1.697 0.72,0 1.108,-0.385 0.977,-0.97 -0.293,-1.305 -0.454,-1.785 -0.733,-2.179 -0.169,-0.239 -0.388,-0.83 -0.486,-1.315 -0.099,-0.484 -0.321,-1.159 -0.493,-1.5 -0.172,-0.34 -0.441,-1.067 -0.599,-1.614 -0.157,-0.547 -0.42,-1.26 -0.584,-1.583 -0.163,-0.324 -0.379,-0.976 -0.48,-1.449 -0.151,-0.715 -0.649,-1.91 -1.344,-3.223 -0.204,-0.387 -1.55,-0.423 -1.879,-0.049 m 8.44,0.125 c -0.225,0.225 -0.409,0.544 -0.409,0.708 0,0.165 -0.011,3.066 -0.024,6.447 l -0.023,6.148 0.398,0.221 c 1.454,0.806 1.647,0.353 1.661,-3.904 0.006,-1.987 0.073,-3.763 0.149,-3.946 0.15,-0.366 0.15,-0.365 0.507,0.793 0.106,0.344 0.33,0.7 0.498,0.79 0.169,0.09 0.437,0.557 0.596,1.037 0.361,1.085 1.344,3.039 1.663,3.303 0.632,0.525 1.728,-0.147 1.974,-1.21 0.058,-0.25 0.286,-0.72 0.506,-1.044 0.22,-0.325 0.451,-0.889 0.512,-1.254 0.071,-0.42 0.292,-0.833 0.601,-1.123 0.269,-0.252 0.565,-0.74 0.659,-1.084 0.435,-1.603 0.653,-0.173 0.655,4.3 0.002,3.338 0.052,3.575 0.759,3.575 0.923,0 0.932,-0.076 0.877,-6.947 -0.047,-5.807 -0.076,-6.356 -0.358,-6.786 -0.598,-0.912 -1.893,-0.191 -2.287,1.272 -0.103,0.385 -0.331,0.881 -0.506,1.103 -0.174,0.222 -0.428,0.775 -0.562,1.229 -0.135,0.454 -0.39,1.062 -0.568,1.352 -0.178,0.29 -0.403,0.83 -0.501,1.199 -0.357,1.343 -1.48,1.867 -1.846,0.862 -0.107,-0.293 -0.349,-0.909 -0.537,-1.367 -0.188,-0.458 -0.52,-1.304 -0.738,-1.879 -0.217,-0.575 -0.503,-1.212 -0.636,-1.416 -0.132,-0.205 -0.401,-0.804 -0.597,-1.332 -0.527,-1.417 -1.592,-1.878 -2.423,-1.047 m 17.988,-0.211 c -0.6,0.971 -1.151,2.221 -1.344,3.046 -0.128,0.546 -0.351,1.124 -0.495,1.284 -0.145,0.16 -0.405,0.897 -0.577,1.637 -0.172,0.74 -0.42,1.511 -0.551,1.715 -0.131,0.203 -0.363,0.857 -0.515,1.453 -0.152,0.596 -0.414,1.309 -0.584,1.584 -0.456,0.744 -0.78,2.659 -0.504,2.991 0.645,0.778 1.922,0.073 2.168,-1.198 0.387,-1.991 0.724,-2.21 3.394,-2.21 1.533,0 1.788,0.042 2.214,0.369 0.659,0.506 0.698,0.579 0.922,1.699 0.241,1.212 0.593,1.598 1.455,1.598 1.179,0 1.325,-1.228 0.362,-3.049 -0.252,-0.477 -0.504,-1.157 -0.559,-1.51 -0.055,-0.354 -0.242,-0.916 -0.415,-1.25 -0.173,-0.334 -0.482,-1.162 -0.686,-1.84 -0.205,-0.678 -0.471,-1.391 -0.592,-1.584 -0.12,-0.192 -0.313,-0.763 -0.427,-1.267 -0.115,-0.504 -0.503,-1.535 -0.863,-2.291 l -0.655,-1.375 h -0.813 c -0.448,0 -0.867,0.089 -0.935,0.198 m 13.743,-0.086 c -0.511,0.135 -0.552,0.608 -0.605,7.062 -0.065,7.938 -0.67,7.013 4.547,6.954 4.502,-0.051 4.578,-0.074 4.04,-1.203 l -0.283,-0.592 h -2.832 -2.831 l -0.246,-0.475 c -0.278,-0.537 -0.28,-3.746 -0.003,-4.012 0.086,-0.083 1.148,-0.176 2.359,-0.207 2.462,-0.063 2.856,-0.219 2.648,-1.048 C 297.112,147.14 296.588,147 294.425,147 h -1.887 l -0.269,-0.567 c -0.335,-0.705 -0.349,-2.253 -0.028,-3.022 l 0.242,-0.578 h 2.275 c 2.89,0 4.368,-0.655 3.291,-1.458 -0.27,-0.201 -6.864,-0.285 -7.576,-0.096 m 10.56,0.088 c -0.287,0.287 -0.287,13.479 0,13.766 0.11,0.11 0.474,0.2 0.808,0.2 1.046,0 1.128,-0.226 1.189,-3.298 0.059,-3.014 0.065,-3.028 1.184,-3.032 1.114,-0.005 1.708,0.363 2.051,1.272 0.167,0.444 0.514,1.21 0.77,1.7 0.256,0.491 0.466,1.016 0.468,1.167 0.003,0.247 0.706,1.44 1.175,1.992 0.269,0.317 1.657,0.192 1.884,-0.17 0.181,-0.29 -0.05,-0.867 -1.387,-3.464 -0.871,-1.69 -0.859,-3.5 0.023,-3.5 0.328,0 1.135,-2.128 1.135,-2.995 0,-1.205 -0.67,-2.688 -1.386,-3.07 -0.292,-0.155 -0.718,-0.39 -0.947,-0.523 -0.551,-0.318 -6.654,-0.358 -6.967,-0.045 m 12.112,0.075 c -0.299,0.36 -0.438,13.011 -0.148,13.552 0.209,0.391 1.456,0.487 1.803,0.139 0.399,-0.399 0.274,-13.226 -0.133,-13.633 -0.405,-0.404 -1.209,-0.435 -1.522,-0.058 m 4.412,-0.016 c -0.055,0.143 -0.031,0.499 0.053,0.792 l 0.152,0.532 2.368,0.046 c 3.121,0.061 3.653,0.727 2.032,2.543 -0.272,0.305 -0.495,0.639 -0.495,0.742 0,0.103 -0.194,0.446 -0.43,0.762 -0.237,0.315 -0.545,0.855 -0.685,1.199 -0.14,0.343 -0.32,0.625 -0.401,0.625 -0.08,0 -0.344,0.393 -0.586,0.875 -0.242,0.481 -0.534,0.929 -0.648,0.996 -0.113,0.066 -0.305,0.366 -0.425,0.666 -0.12,0.3 -0.443,0.866 -0.719,1.257 -0.629,0.894 -0.855,2.246 -0.438,2.623 0.46,0.417 8.508,0.365 8.891,-0.057 0.26,-0.287 0.253,-0.342 -0.106,-0.875 l -0.383,-0.569 -2.402,-0.046 c -3.26,-0.063 -3.751,-0.648 -2.112,-2.515 0.131,-0.15 0.407,-0.61 0.614,-1.022 0.206,-0.413 0.552,-0.962 0.769,-1.221 0.217,-0.259 0.394,-0.566 0.394,-0.683 0,-0.116 0.144,-0.342 0.321,-0.501 0.176,-0.16 0.509,-0.689 0.74,-1.177 0.231,-0.487 0.5,-0.936 0.599,-0.997 0.098,-0.061 0.29,-0.349 0.427,-0.641 0.137,-0.291 0.436,-0.785 0.664,-1.096 0.445,-0.607 0.556,-1.61 0.243,-2.195 -0.239,-0.447 -8.267,-0.507 -8.437,-0.063 m 29.417,-0.039 c -0.538,0.409 -0.623,1.444 -0.613,7.493 l 0.009,5.964 0.48,0.248 c 0.39,0.202 1.154,0.239 4.088,0.203 4.108,-0.051 4.215,-0.086 3.683,-1.203 l -0.282,-0.592 h -2.311 c -3.849,0 -3.513,0.606 -3.569,-6.433 -0.045,-5.693 -0.076,-5.907 -0.854,-5.895 -0.195,0.003 -0.479,0.1 -0.631,0.215 m -156.557,1.621 c 1.88,0.488 2.517,1.207 2.302,2.601 -0.248,1.602 -0.882,2.058 -2.867,2.058 -2.206,0 -2.186,0.02 -2.183,-2.205 0.004,-2.58 0.512,-3.034 2.748,-2.454 m 12.244,0.268 c 2.493,0.841 1.289,4.057 -1.518,4.057 -1.815,0 -2.143,-0.378 -2.143,-2.474 0,-2.008 1.054,-2.464 3.661,-1.583 m 12.188,-0.121 c 2.2,0.985 3.204,6.312 1.614,8.558 -0.209,0.295 -0.463,0.686 -0.564,0.869 -0.662,1.197 -3.511,1.156 -4.615,-0.067 -1.895,-2.096 -1.504,-8.155 0.588,-9.132 1.391,-0.649 1.942,-0.691 2.977,-0.228 m 24.818,-0.15 c 0.412,0.091 0.913,0.201 1.113,0.247 1.317,0.298 1.631,2.279 0.531,3.354 l -0.66,0.644 -1.626,0.056 c -2.043,0.071 -2.07,0.045 -2.162,-2.05 -0.105,-2.397 0.374,-2.782 2.804,-2.251 m 66.141,0.014 c 1.232,0.203 1.429,0.313 1.984,1.101 1.111,1.579 -0.288,3.183 -2.792,3.199 -1.921,0.012 -1.905,0.028 -1.974,-1.985 -0.088,-2.568 0.134,-2.753 2.782,-2.315 m 29.177,0.326 c 1.3,0.731 2.296,3.697 1.994,5.939 -0.748,5.558 -6.523,5.587 -7.292,0.037 -0.613,-4.422 2.272,-7.677 5.298,-5.976 m 27.572,-0.095 c 1.343,0.515 2.078,2.308 2.097,5.111 l 0.013,1.945 -0.645,1.222 c -1.396,2.646 -4.808,2.676 -5.825,0.052 -0.212,-0.548 -0.493,-1.233 -0.625,-1.522 -0.32,-0.703 -0.317,-3.088 0.004,-3.783 0.134,-0.289 0.399,-0.95 0.59,-1.468 0.632,-1.72 2.366,-2.334 4.391,-1.557 m 25.426,0.041 c 0.444,0.189 0.8,0.498 1.009,0.876 0.881,1.588 0.908,1.699 0.974,3.916 l 0.064,2.167 -0.66,1.25 c -1.415,2.682 -5.154,2.658 -5.88,-0.037 -0.098,-0.363 -0.328,-0.949 -0.512,-1.302 -0.791,-1.517 0.085,-5.56 1.424,-6.576 1.031,-0.782 2.21,-0.879 3.581,-0.294 m -136.563,2.45 c 0.425,0.325 0.593,0.637 0.815,1.523 0.154,0.614 0.39,1.327 0.524,1.586 0.373,0.723 -0.551,1.08 -2.287,0.884 -1.181,-0.134 -1.344,-0.365 -0.857,-1.221 0.186,-0.328 0.467,-1.178 0.623,-1.888 0.313,-1.418 0.398,-1.482 1.182,-0.884 m 26.349,-0.063 c 0.512,0.317 1.064,1.476 1.064,2.234 0,0.101 0.144,0.467 0.32,0.812 l 0.32,0.628 -0.445,0.195 c -0.578,0.253 -2.786,0.223 -3.105,-0.042 -0.214,-0.177 -0.195,-0.304 0.143,-0.979 0.214,-0.427 0.44,-1.076 0.503,-1.443 0.303,-1.764 0.412,-1.892 1.2,-1.405"
       inkscape:connector-curvature="0"
       style="fill:#0f70b7;fill-rule:evenodd;stroke:none"
       sodipodi:nodetypes="cccscccsccccsscccsccssccsssccccccccccccccccsscccccsccssccsscccccccccccccsccsccsccsccccccccccccccsccccssscsccccccsscscscccccscccccccssccccccccscccccccccccccccccccscsccccscccscscccscccssccccccccsccccccccccccccccccccccccscsccccscccsccsccscccccccccccscscccscscsccccccccccccccccccccccccccccccccccscccccccccccccccscccccccccccccccccccccccccsccccccccccccccscsccccsccccsccscccsccccccccccsccccsccccccccccsccccccsccsccccscsccccccccccscccccccccccccccscccccsccscccccccscscccsccsccscccccsccccccccccccsccccscccssccccccccsscccccccccccccsccsccsccccccccssccccccccccccccscccccscccsscccccccccccccccccccccccccccccccccccccccccccccccccsccccccc" />
  </g>
</svg>
