<?xml version="1.0" encoding="UTF-8" standalone="no"?>
<svg
   xmlns:dc="http://purl.org/dc/elements/1.1/"
   xmlns:cc="http://creativecommons.org/ns#"
   xmlns:rdf="http://www.w3.org/1999/02/22-rdf-syntax-ns#"
   xmlns:svg="http://www.w3.org/2000/svg"
   xmlns="http://www.w3.org/2000/svg"
   xmlns:sodipodi="http://sodipodi.sourceforge.net/DTD/sodipodi-0.dtd"
   xmlns:inkscape="http://www.inkscape.org/namespaces/inkscape"
   id="svg"
   version="1.1"
   width="177.55449"
   height="79.305145"
   style="display:block"
   sodipodi:docname="firma.svg"
   inkscape:version="0.92.1 r15371">
  <metadata
     id="metadata16">
    <rdf:RDF>
      <cc:Work
         rdf:about="">
        <dc:format>image/svg+xml</dc:format>
        <dc:type
           rdf:resource="http://purl.org/dc/dcmitype/StillImage" />
        <dc:title></dc:title>
      </cc:Work>
    </rdf:RDF>
  </metadata>
  <defs
     id="defs14" />
  <sodipodi:namedview
     pagecolor="#ffffff"
     bordercolor="#666666"
     borderopacity="1"
     objecttolerance="10"
     gridtolerance="10"
     guidetolerance="10"
     inkscape:pageopacity="0"
     inkscape:pageshadow="2"
     inkscape:window-width="867"
     inkscape:window-height="480"
     id="namedview12"
     showgrid="false"
     fit-margin-top="0"
     fit-margin-left="0"
     fit-margin-right="0"
     fit-margin-bottom="0"
     inkscape:zoom="0.8032733"
     inkscape:cx="146.74903"
     inkscape:cy="-109.66346"
     inkscape:window-x="0"
     inkscape:window-y="0"
     inkscape:window-maximized="0"
     inkscape:current-layer="svg" />
  <g
     id="svgg"
     transform="translate(-24.531433,-28.8)">
    <path
       id="path0"
       d=""
       inkscape:connector-curvature="0"
       style="fill:#000000;fill-rule:evenodd;stroke:none" />
    <path
       id="path3"
       d=""
       inkscape:connector-curvature="0"
       style="fill:#00ffff;fill-rule:evenodd;stroke:none" />
    <path
       id="path4"
       d="m 193.453,57.914 c -0.106,0.172 0.169,1.567 0.612,3.1 4.614,15.949 -7.731,26.118 -18.24,15.026 -2.389,-2.522 -3.396,-0.997 -1.261,1.911 5.701,7.766 5.691,20.113 -0.02,27.09 -2.507,3.062 -1.281,3.659 4.777,2.325 15.962,-3.513 25.566,-19.562 22.036,-36.823 C 200,63.905 194.843,55.665 193.453,57.914 m -11.112,9.49 c -2.093,1.371 -3.063,4.012 -2.394,6.514 1.825,6.823 11.658,5.474 11.652,-1.598 -0.005,-4.733 -5.271,-7.53 -9.258,-4.916 M 36.8,75.372 c -13.669,3.804 -16.734,22.233 -5.023,30.2 4.508,3.066 12.623,3.318 18.723,0.58 l 1.5,-0.673 v -2.981 -2.981 l -1.367,1.201 C 42.922,107.487 29.6,101.712 29.6,91.6 29.6,81.695 42.215,75.799 50.077,82.03 52.034,83.581 52,83.609 52,80.435 V 77.67 l -2.7,-1.005 c -5.052,-1.88 -8.943,-2.282 -12.5,-1.293 m 29.879,0.405 c -16.828,5.939 -13.379,31.349 4.363,32.149 8.451,0.381 14.891,-4.023 16.935,-11.579 3.591,-13.279 -8.599,-25.052 -21.298,-20.57 m 86.031,-0.385 c -15.18,4.178 -15.526,27.437 -0.476,32.003 8.376,2.541 17.778,-1.967 20.55,-9.853 4.632,-13.178 -6.808,-25.802 -20.074,-22.15 M 93.2,91.341 V 107.6 h 2.6 2.6 v -7 c 0,-7.723 -0.071,-7.542 2.531,-6.455 1.418,0.593 4.389,3.733 5.349,5.655 0.33,0.66 1.524,2.685 2.654,4.5 l 2.054,3.3 h 2.952 2.952 l -0.73,-1.1 c -0.401,-0.605 -1.976,-3.17 -3.5,-5.7 -1.523,-2.53 -3.465,-5.442 -4.316,-6.472 -1.867,-2.26 -1.856,-2.066 -0.167,-3.062 3.902,-2.303 4.228,-10.161 0.56,-13.528 -1.857,-1.704 -3.846,-2.195 -9.839,-2.431 l -5.7,-0.225 v 16.259 m 27.2,0.059 v 16.2 h 2.6 2.6 v -7.4 -7.4 h 5.6 5.6 V 90.4 88 h -5.6 -5.6 v -4 -4 h 5.6 5.6 v -2.4 -2.4 h -8.2 -8.2 V 91.4 M 76.6,80.541 C 87.484,85.62 84.098,103.6 72.258,103.6 60.881,103.6 56.83,87.294 66.664,81.086 69.519,79.284 73.445,79.069 76.6,80.541 m 86.2,0.452 c 10.027,6.313 6.05,22.623 -5.511,22.603 -7.929,-0.013 -13.138,-8.756 -10.082,-16.923 2.308,-6.168 10.233,-9.055 15.593,-5.68 M 104,80.701 c 4.356,2.176 2.397,7.737 -2.829,8.033 L 98.4,88.89 V 84.445 80 l 2.1,0.001 c 1.198,0 2.702,0.301 3.5,0.7"
       inkscape:connector-curvature="0"
       style="fill:#0061a9;fill-rule:evenodd;stroke:none"
       sodipodi:nodetypes="cccccccccccccccccccscscccccccccccccccsccccccccccccccccccccccccccccccccccccsccccscccccccc" />
    <path
       id="path5"
       d=""
       inkscape:connector-curvature="0"
       style="fill:#000080;fill-rule:evenodd;stroke:none" />
    <path
       id="path6"
       d="m 136,30.511 v 1.71 l -1.512,-0.144 c -2.395,-0.228 -3.688,1.312 -3.688,4.396 0,3.514 2.215,5.31 4.826,3.913 0.534,-0.286 0.774,-0.286 0.774,0 0,0.228 0.27,0.414 0.6,0.414 0.507,0 0.6,-0.933 0.6,-6 0,-5.733 -0.036,-6 -0.8,-6 -0.675,0 -0.8,0.267 -0.8,1.711 M 25.6,34.955 c 0,5.578 0.036,5.845 0.8,5.845 0.703,0 0.8,-0.267 0.8,-2.2 v -2.2 h 1.511 c 5.998,0 5.674,-6.794 -0.34,-7.134 L 25.6,29.11 v 5.845 m 5.036,-3.725 c 1.541,1.279 0.41,3.45 -2,3.842 L 27.2,35.305 V 32.8 30.295 l 1.436,0.233 c 0.789,0.128 1.689,0.444 2,0.702 M 72.9,30.665 c -0.275,0.111 -0.5,0.457 -0.5,0.768 0,0.312 -0.27,0.567 -0.6,0.567 -0.33,0 -0.6,0.27 -0.6,0.6 0,0.33 0.27,0.6 0.6,0.6 0.478,0 0.6,0.59 0.6,2.911 0,4.065 1.599,5.817 3.951,4.328 0.692,-0.438 0.204,-1.299 -0.686,-1.212 C 74.073,39.383 74,39.25 74,36.2 v -3 h 1.2 C 76,33.2 76.4,33 76.4,32.6 76.4,32.2 76,32 75.2,32 74.267,32 74,31.822 74,31.2 74,30.392 73.808,30.298 72.9,30.665 M 34,36.4 c 0,4.133 0.048,4.4 0.8,4.4 0.736,0 0.8,-0.267 0.8,-3.357 0,-3.592 0.146,-3.843 2.233,-3.843 0.7,0 0.967,-0.221 0.967,-0.8 0,-0.936 -1.88,-1.14 -2.77,-0.3 -0.424,0.4 -0.567,0.4 -0.713,0 C 34.585,30.505 34,32.237 34,36.4 m 6.48,-3.589 c -1.1,1.025 -1.434,2.348 -1.174,4.654 0.596,5.282 6.911,4.292 6.879,-1.079 -0.023,-3.825 -3.259,-5.853 -5.705,-3.575 m 7.024,-0.582 c -0.126,0.126 0.218,1.611 0.766,3.3 1.501,4.633 1.788,5.283 2.216,5.018 0.526,-0.325 -0.488,1.576 -1.027,1.927 -0.232,0.15 -0.925,0.173 -1.54,0.05 -1.396,-0.279 -1.599,0.854 -0.219,1.224 2.683,0.719 3.487,-0.21 5.477,-6.325 C 55.073,31.596 55.01,32 54.013,32 c -0.641,0 -0.987,0.65 -1.862,3.5 L 51.077,39 50.146,36 C 49.634,34.35 49.212,32.775 49.208,32.5 49.2,31.999 47.935,31.798 47.504,32.229 m 9.842,0.239 c -2.43,1.176 -2.347,6.765 0.117,7.888 1.877,0.855 4.937,0.242 4.937,-0.989 0,-0.433 -0.215,-0.57 -0.637,-0.408 -2.427,0.931 -4.563,0.29 -4.563,-1.368 0,-0.707 0.277,-0.791 2.6,-0.791 h 2.6 v -1.418 c 0,-2.626 -2.579,-4.113 -5.054,-2.914 m 8.025,0.456 c -2.291,1.97 -1.587,7.101 1.053,7.681 1.609,0.354 3.976,-0.097 3.976,-0.756 0,-0.859 -0.412,-1.003 -1.641,-0.575 -1.897,0.661 -3.159,-0.411 -3.159,-2.683 0,-2.69 1.632,-4.044 3.602,-2.99 1.045,0.56 1.548,-0.356 0.583,-1.062 -1.145,-0.837 -3.202,-0.658 -4.414,0.385 m 13.237,0.031 C 75.901,35.662 77.468,40.8 81,40.8 c 2.325,0 3.4,-1.391 3.4,-4.401 0,-3.961 -3.308,-5.928 -5.792,-3.444 m 12.007,-0.416 c -1.178,0.862 -0.452,1.459 1.169,0.961 1.551,-0.476 2.616,0.053 2.616,1.297 0,0.532 -0.431,0.748 -1.8,0.902 -2.283,0.257 -3,0.861 -3,2.527 0,2.11 2.364,3.264 4.426,2.16 0.534,-0.286 0.774,-0.286 0.774,0 0,0.228 0.27,0.414 0.6,0.414 1.025,0 0.852,-6.948 -0.2,-8 -0.939,-0.939 -3.46,-1.083 -4.585,-0.261 M 98,37.8 c 0,5.533 0.037,5.8 0.8,5.8 0.659,0 0.8,-0.267 0.8,-1.511 v -1.51 l 1.582,0.151 c 2.404,0.229 3.618,-1.249 3.618,-4.407 0,-3.454 -2.79,-5.691 -4.77,-3.823 -0.424,0.4 -0.567,0.4 -0.713,0 C 98.501,30.274 98,32.289 98,37.8 m 9.68,-4.989 c -1.1,1.025 -1.434,2.348 -1.174,4.654 0.596,5.282 6.911,4.292 6.879,-1.079 -0.023,-3.825 -3.259,-5.853 -5.705,-3.575 m 7.024,-0.582 c -0.126,0.126 0.218,1.611 0.766,3.3 1.501,4.633 1.788,5.283 2.216,5.018 0.526,-0.325 -0.488,1.576 -1.027,1.927 -0.232,0.15 -0.925,0.173 -1.54,0.05 -1.396,-0.279 -1.599,0.854 -0.219,1.224 2.683,0.719 3.487,-0.21 5.477,-6.325 1.894,-5.823 1.832,-5.423 0.847,-5.423 -0.626,0 -0.984,0.674 -1.856,3.5 l -1.079,3.5 -0.937,-3 c -0.515,-1.65 -0.94,-3.225 -0.944,-3.5 -0.008,-0.501 -1.273,-0.702 -1.704,-0.271 m 8.813,0.194 c -1.268,0.739 -0.439,1.539 1.104,1.066 1.148,-0.352 1.501,-0.303 2.175,0.307 1.262,1.142 0.975,1.681 -1.012,1.905 -0.999,0.112 -2.169,0.524 -2.6,0.914 -2.276,2.059 0.81,5.287 3.618,3.784 0.501,-0.268 0.832,-0.268 0.997,0 0.687,1.111 1.001,0.051 1.001,-3.376 0,-4.656 -2.081,-6.467 -5.283,-4.6 m 17.427,0.161 c -3.209,2.248 -1.686,8.216 2.096,8.216 2.26,0 3.36,-1.417 3.36,-4.327 0,-3.717 -2.826,-5.731 -5.456,-3.889 M 152,37.8 c 0,5.533 0.037,5.8 0.8,5.8 0.666,0 0.8,-0.267 0.8,-1.587 0,-1.251 0.128,-1.539 0.603,-1.356 2.675,1.026 4.806,-1.335 4.503,-4.989 -0.261,-3.138 -2.312,-4.549 -4.732,-3.254 -0.534,0.286 -0.774,0.286 -0.774,0 0,-0.228 -0.27,-0.414 -0.6,-0.414 -0.506,0 -0.6,0.911 -0.6,5.8 m 9.382,-4.818 c -1.434,1.434 -1.434,5.402 0,6.836 2.545,2.545 5.818,0.622 5.818,-3.418 0,-3.009 -1.075,-4.4 -3.4,-4.4 -0.992,0 -1.74,0.304 -2.418,0.982 M 169.2,36.4 c 0,4.104 0.053,4.4 0.784,4.4 0.711,0 0.796,-0.329 0.9,-3.5 l 0.116,-3.5 1.3,-0.125 c 0.976,-0.094 1.3,-0.319 1.3,-0.9 0,-0.871 -1.153,-1.043 -2.426,-0.361 -0.534,0.286 -0.774,0.286 -0.774,0 0,-0.228 -0.27,-0.414 -0.6,-0.414 -0.497,0 -0.6,0.756 -0.6,4.4 M 44.177,34.089 c 1.291,1.843 0.379,5.511 -1.371,5.511 -1.28,0 -2.006,-1.12 -2.006,-3.097 0,-2.945 2.003,-4.376 3.377,-2.414 M 60.083,33.7 c 1.669,1.312 1.302,2.3 -0.856,2.3 -2.226,0 -2.652,-0.646 -1.365,-2.069 0.777,-0.859 1.347,-0.918 2.221,-0.231 m 22.008,0.2 c 2.078,2.367 0.45,6.66 -2.023,5.336 -1.419,-0.759 -1.515,-4.445 -0.144,-5.536 0.857,-0.682 1.44,-0.628 2.167,0.2 m 20.391,0 c 2.047,2.366 0.39,6.623 -2.067,5.308 -1.118,-0.598 -1.208,-4.94 -0.115,-5.576 1.005,-0.586 1.495,-0.525 2.182,0.268 m 8.895,0.189 c 1.291,1.843 0.379,5.511 -1.371,5.511 -1.28,0 -2.006,-1.12 -2.006,-3.097 0,-2.945 2.003,-4.376 3.377,-2.414 m 23.99,-0.646 c 1.046,0.401 0.894,5.189 -0.182,5.765 -2.52,1.349 -4.184,-2.907 -2.076,-5.308 0.65,-0.739 1.221,-0.855 2.258,-0.457 m 8.717,0.457 c 2.06,2.371 0.426,6.644 -2.036,5.325 -1.484,-0.793 -1.566,-4.765 -0.117,-5.61 0.973,-0.568 1.469,-0.502 2.153,0.285 m 12.493,0.189 c 1.524,2.175 0.2,5.893 -1.91,5.364 -1.018,-0.256 -1.067,-0.387 -1.067,-2.841 0,-3.287 1.532,-4.586 2.977,-2.523 m 8.4,-0.276 c 1.093,0.827 1.11,4.442 0.023,5.236 -1.774,1.298 -3.154,0.161 -3.154,-2.6 0,-1.997 0.744,-3.224 1.954,-3.224 0.22,0 0.75,0.265 1.177,0.588 M 94.4,37.973 c 0,1.289 -0.987,1.876 -2.4,1.427 -0.898,-0.285 -1.119,-2.005 -0.3,-2.335 1.593,-0.643 2.7,-0.27 2.7,0.908 m 33.2,-0.164 c 0,1.753 -2.836,2.406 -3.454,0.795 -0.367,-0.958 0.618,-1.804 2.103,-1.804 1.177,0 1.351,0.13 1.351,1.009"
       inkscape:connector-curvature="0"
       style="fill:#5b5a5d;fill-rule:evenodd;stroke:none"
       sodipodi:nodetypes="cccscssssccsscscccccccccccsssssccscssssccssssccccccccccccccscccccccscsscscccscsccccsscccscscsssccssccsccccccccccccccsccccccccccccsccssccsscccssccsssccscccscssccssccscccccccccccsscccccccccccscccsscccccccsc" />
    <path
       id="path7"
       d=""
       inkscape:connector-curvature="0"
       style="fill:#0000ff;fill-rule:evenodd;stroke:none" />
  </g>
</svg>
