<?xml version="1.0" encoding="UTF-8" standalone="no"?>
<svg
   xmlns:dc="http://purl.org/dc/elements/1.1/"
   xmlns:cc="http://creativecommons.org/ns#"
   xmlns:rdf="http://www.w3.org/1999/02/22-rdf-syntax-ns#"
   xmlns:svg="http://www.w3.org/2000/svg"
   xmlns="http://www.w3.org/2000/svg"
   xmlns:sodipodi="http://sodipodi.sourceforge.net/DTD/sodipodi-0.dtd"
   xmlns:inkscape="http://www.inkscape.org/namespaces/inkscape"
   id="svg"
   version="1.1"
   width="155.80203"
   height="156.55855"
   style="display:block"
   sodipodi:docname="logo.svg"
   inkscape:version="0.92.1 r15371">
  <metadata
     id="metadata9">
    <rdf:RDF>
      <cc:Work
         rdf:about="">
        <dc:format>image/svg+xml</dc:format>
        <dc:type
           rdf:resource="http://purl.org/dc/dcmitype/StillImage" />
        <dc:title></dc:title>
      </cc:Work>
    </rdf:RDF>
  </metadata>
  <defs
     id="defs7" />
  <sodipodi:namedview
     pagecolor="#ffffff"
     bordercolor="#666666"
     borderopacity="1"
     objecttolerance="10"
     gridtolerance="10"
     guidetolerance="10"
     inkscape:pageopacity="0"
     inkscape:pageshadow="2"
     inkscape:window-width="640"
     inkscape:window-height="480"
     id="namedview5"
     showgrid="false"
     fit-margin-top="0"
     fit-margin-left="0"
     fit-margin-right="0"
     fit-margin-bottom="0"
     inkscape:zoom="0.94666667"
     inkscape:cx="180.02542"
     inkscape:cy="57.999302"
     inkscape:window-x="0"
     inkscape:window-y="0"
     inkscape:window-maximized="0"
     inkscape:current-layer="svg" />
  <g
     id="svgg"
     transform="translate(-11.372181,-4.405531)">
    <path
       id="path0"
       d="M 83.583,4.521 C 82.667,4.603 81.429,4.779 80.833,4.911 80.237,5.043 78.737,5.237 77.5,5.342 76.154,5.456 74.714,5.69 73.917,5.925 73.183,6.141 71.908,6.401 71.083,6.502 70.237,6.606 69.215,6.853 68.738,7.07 68.274,7.281 67.469,7.507 66.95,7.572 c -0.519,0.065 -1.278,0.295 -1.686,0.512 -0.408,0.217 -1.216,0.483 -1.795,0.59 -0.579,0.107 -1.252,0.334 -1.496,0.504 -0.243,0.17 -0.806,0.399 -1.25,0.508 -0.443,0.11 -1.211,0.412 -1.705,0.673 -0.494,0.261 -1.004,0.474 -1.134,0.474 -0.13,0 -0.73,0.263 -1.335,0.584 -0.605,0.32 -1.227,0.583 -1.384,0.583 -0.157,0 -0.575,0.197 -0.93,0.438 -0.354,0.24 -0.934,0.539 -1.288,0.664 -0.354,0.125 -0.86,0.409 -1.125,0.632 -0.264,0.222 -0.702,0.453 -0.973,0.513 -0.271,0.059 -0.587,0.221 -0.702,0.36 -0.115,0.139 -0.565,0.433 -1,0.653 -0.434,0.22 -0.84,0.481 -0.901,0.579 -0.06,0.098 -0.516,0.358 -1.011,0.577 -0.496,0.22 -0.902,0.466 -0.902,0.549 0,0.082 -0.337,0.323 -0.75,0.535 -0.412,0.212 -0.75,0.453 -0.75,0.535 0,0.082 -0.281,0.266 -0.625,0.409 -0.343,0.144 -0.901,0.496 -1.238,0.783 -0.338,0.288 -0.924,0.748 -1.303,1.023 -0.379,0.275 -0.963,0.744 -1.296,1.042 -0.334,0.298 -0.662,0.541 -0.729,0.541 -0.715,0 -9.029,8.27 -11.642,11.581 -2.38,3.014 -4,5.225 -4,5.455 0,0.093 -0.193,0.404 -0.428,0.691 -0.725,0.884 -1.219,1.652 -1.653,2.565 C 21.691,42.606 21.437,43 21.356,43 c -0.082,0 -0.316,0.394 -0.52,0.875 -0.205,0.481 -0.486,1.003 -0.624,1.16 -0.139,0.157 -0.432,0.644 -0.651,1.083 -0.22,0.439 -0.502,0.986 -0.626,1.215 -0.456,0.841 -1.412,2.929 -1.527,3.334 -0.064,0.229 -0.289,0.716 -0.499,1.083 -0.21,0.367 -0.469,0.996 -0.575,1.399 -0.106,0.403 -0.332,0.928 -0.502,1.167 -0.169,0.239 -0.394,0.884 -0.499,1.434 -0.105,0.55 -0.346,1.218 -0.536,1.485 -0.19,0.266 -0.446,1.016 -0.569,1.666 -0.123,0.65 -0.405,1.595 -0.626,2.099 -0.439,1.003 -0.875,3.555 -0.715,4.186 0.148,0.583 0.625,0.8 1.983,0.901 2.225,0.165 4.202,0.449 5.297,0.761 0.595,0.17 1.868,0.391 2.828,0.493 0.975,0.103 2.048,0.322 2.433,0.497 0.378,0.173 1.449,0.428 2.38,0.567 0.93,0.139 1.923,0.373 2.207,0.519 0.283,0.147 1.127,0.382 1.875,0.523 0.748,0.141 1.626,0.392 1.952,0.558 0.325,0.165 1.185,0.424 1.911,0.574 0.726,0.15 1.554,0.417 1.839,0.593 0.286,0.177 1.072,0.437 1.747,0.579 0.676,0.142 1.345,0.364 1.487,0.492 0.141,0.128 0.782,0.362 1.424,0.52 0.642,0.158 1.467,0.456 1.833,0.662 0.367,0.207 0.929,0.428 1.25,0.493 0.321,0.064 0.959,0.325 1.417,0.58 0.458,0.254 1.101,0.51 1.429,0.567 0.327,0.058 0.85,0.294 1.163,0.524 0.312,0.231 0.855,0.465 1.207,0.521 0.351,0.057 0.914,0.289 1.25,0.517 0.336,0.228 0.876,0.508 1.201,0.623 0.325,0.115 0.881,0.405 1.235,0.646 0.355,0.24 0.772,0.437 0.926,0.437 0.155,0 0.613,0.22 1.019,0.487 0.405,0.268 0.962,0.541 1.237,0.606 0.275,0.065 0.742,0.298 1.039,0.519 0.296,0.221 0.823,0.501 1.17,0.624 0.347,0.122 0.921,0.42 1.276,0.66 0.354,0.241 0.774,0.438 0.931,0.438 0.158,0 0.566,0.189 0.907,0.42 0.34,0.231 0.983,0.605 1.428,0.83 0.445,0.226 0.854,0.484 0.911,0.575 0.056,0.091 0.415,0.25 0.798,0.353 0.384,0.103 0.897,0.356 1.141,0.561 0.244,0.205 0.792,0.471 1.219,0.59 0.427,0.12 0.845,0.346 0.929,0.502 0.083,0.156 0.511,0.418 0.951,0.582 0.44,0.164 0.95,0.429 1.133,0.588 0.183,0.16 0.633,0.384 1,0.499 0.367,0.114 0.818,0.345 1.002,0.512 0.185,0.168 0.611,0.42 0.948,0.561 0.337,0.14 0.89,0.444 1.229,0.674 0.34,0.231 0.747,0.419 0.904,0.419 0.158,0 0.577,0.197 0.932,0.438 0.354,0.24 0.944,0.543 1.31,0.672 0.366,0.129 0.82,0.38 1.008,0.557 0.189,0.177 0.676,0.44 1.084,0.583 0.407,0.144 0.892,0.4 1.078,0.569 0.186,0.169 0.638,0.4 1.005,0.515 0.367,0.114 0.826,0.353 1.022,0.531 0.195,0.177 0.716,0.431 1.158,0.564 0.441,0.133 0.957,0.383 1.145,0.554 0.188,0.172 0.763,0.433 1.278,0.58 0.515,0.147 1.027,0.376 1.138,0.51 0.111,0.133 0.566,0.364 1.012,0.512 0.446,0.148 0.984,0.403 1.196,0.567 0.211,0.164 0.815,0.431 1.341,0.595 0.526,0.164 1.041,0.4 1.145,0.525 0.103,0.125 0.648,0.373 1.21,0.552 0.562,0.179 1.391,0.516 1.842,0.751 0.451,0.234 0.966,0.425 1.146,0.425 0.18,0 0.711,0.218 1.18,0.483 0.47,0.266 1.17,0.534 1.557,0.597 0.387,0.063 0.9,0.269 1.139,0.458 0.24,0.188 0.929,0.446 1.532,0.572 0.603,0.126 1.348,0.385 1.656,0.576 0.307,0.19 1.01,0.451 1.561,0.579 0.552,0.129 1.285,0.378 1.631,0.555 0.346,0.176 1.108,0.407 1.693,0.513 0.585,0.106 1.406,0.365 1.824,0.574 0.418,0.209 1.173,0.433 1.677,0.497 0.504,0.065 1.329,0.297 1.834,0.518 0.504,0.22 1.516,0.511 2.25,0.646 0.733,0.135 1.67,0.391 2.083,0.57 0.412,0.179 1.388,0.415 2.167,0.526 0.779,0.11 1.724,0.34 2.099,0.511 0.376,0.171 1.445,0.424 2.375,0.564 0.93,0.139 1.915,0.368 2.189,0.509 0.273,0.142 1.492,0.407 2.708,0.59 1.217,0.183 2.662,0.478 3.212,0.656 0.55,0.177 1.728,0.406 2.619,0.508 0.89,0.102 2.023,0.328 2.517,0.502 0.494,0.173 1.416,0.36 2.048,0.414 1.661,0.143 3.169,0.405 4.339,0.755 0.563,0.168 1.913,0.387 3,0.488 1.088,0.1 2.764,0.361 3.727,0.579 0.962,0.218 2.612,0.483 3.667,0.589 1.054,0.105 2.313,0.302 2.797,0.438 1.527,0.427 2.301,0.075 2.603,-1.183 0.067,-0.275 0.296,-0.763 0.511,-1.084 0.215,-0.32 0.47,-0.968 0.567,-1.438 0.097,-0.47 0.357,-1.194 0.578,-1.61 0.221,-0.415 0.453,-1.171 0.517,-1.678 0.063,-0.508 0.261,-1.108 0.438,-1.334 0.178,-0.226 0.44,-1.025 0.583,-1.778 0.143,-0.752 0.406,-1.739 0.585,-2.194 0.179,-0.454 0.44,-1.644 0.579,-2.643 0.14,-0.999 0.353,-2.099 0.475,-2.446 0.282,-0.802 0.54,-2.796 0.773,-5.962 0.101,-1.375 0.254,-2.82 0.341,-3.211 0.185,-0.83 0.223,-8.956 0.044,-9.247 -0.122,-0.196 -0.275,-1.759 -0.545,-5.542 -0.078,-1.1 -0.335,-2.788 -0.57,-3.75 -0.235,-0.963 -0.512,-2.386 -0.615,-3.163 -0.103,-0.777 -0.331,-1.728 -0.507,-2.114 -0.175,-0.385 -0.396,-1.243 -0.49,-1.906 -0.094,-0.663 -0.318,-1.443 -0.497,-1.733 -0.18,-0.291 -0.438,-1.057 -0.574,-1.702 -0.136,-0.646 -0.397,-1.428 -0.58,-1.739 -0.183,-0.31 -0.421,-0.976 -0.527,-1.479 -0.107,-0.503 -0.372,-1.22 -0.59,-1.595 -0.218,-0.374 -0.503,-1.037 -0.634,-1.474 -0.132,-0.436 -0.362,-0.929 -0.511,-1.094 -0.15,-0.165 -0.373,-0.681 -0.495,-1.145 -0.123,-0.465 -0.376,-1.039 -0.563,-1.276 -0.187,-0.238 -0.461,-0.797 -0.609,-1.243 -0.148,-0.446 -0.376,-0.9 -0.505,-1.007 -0.13,-0.108 -0.431,-0.583 -0.669,-1.055 -0.915,-1.818 -1.34,-2.573 -1.702,-3.021 -0.206,-0.256 -0.375,-0.561 -0.375,-0.677 0,-0.117 -0.244,-0.514 -0.542,-0.883 -0.298,-0.369 -0.841,-1.173 -1.208,-1.785 -0.367,-0.613 -0.825,-1.274 -1.018,-1.47 -0.193,-0.196 -0.476,-0.599 -0.629,-0.897 C 151.95,36.244 151.754,36 151.667,36 c -0.087,0 -0.283,-0.244 -0.435,-0.542 -0.264,-0.516 -0.942,-1.392 -1.768,-2.286 -0.21,-0.226 -0.51,-0.601 -0.669,-0.833 -0.862,-1.262 -6.417,-6.916 -6.966,-7.09 -0.302,-0.096 -0.552,0.082 -1.442,1.026 l -1.076,1.142 h -1.564 -1.565 l -0.673,-0.701 c -0.408,-0.424 -0.789,-1.049 -0.966,-1.583 -0.241,-0.726 -0.367,-0.89 -0.71,-0.925 -1.129,-0.113 -2.159,-0.424 -2.439,-0.735 -0.171,-0.189 -0.471,-0.406 -0.666,-0.481 -1.161,-0.444 -1.151,-3.172 0.018,-4.986 0.72,-1.118 0.541,-1.349 -1.996,-2.567 -0.458,-0.22 -0.972,-0.555 -1.142,-0.743 -0.17,-0.189 -0.528,-0.392 -0.796,-0.451 -0.268,-0.058 -0.703,-0.289 -0.967,-0.511 -0.265,-0.223 -0.793,-0.515 -1.174,-0.649 -0.381,-0.135 -0.881,-0.392 -1.11,-0.573 -0.23,-0.181 -0.815,-0.444 -1.301,-0.585 -0.486,-0.141 -0.978,-0.371 -1.093,-0.51 -0.116,-0.14 -0.632,-0.375 -1.147,-0.524 -0.515,-0.148 -1.129,-0.405 -1.365,-0.571 -0.236,-0.166 -0.798,-0.391 -1.25,-0.499 -0.452,-0.109 -1.067,-0.337 -1.367,-0.507 -0.301,-0.17 -1.142,-0.458 -1.871,-0.639 -0.728,-0.182 -1.503,-0.447 -1.722,-0.59 -0.219,-0.144 -0.995,-0.366 -1.724,-0.494 -0.73,-0.128 -1.622,-0.385 -1.982,-0.57 -0.361,-0.185 -1.293,-0.419 -2.072,-0.519 -0.779,-0.1 -1.912,-0.328 -2.516,-0.506 C 102.879,5.622 101.431,5.406 99.083,5.243 98.167,5.179 97.267,5.042 97.083,4.94 96.35,4.528 86.793,4.232 83.583,4.521 m 12.686,2.69 c 0.194,0.113 0.663,0.376 1.042,0.584 0.379,0.208 0.69,0.471 0.692,0.583 0.002,0.113 0.227,0.535 0.5,0.939 0.737,1.088 0.691,2.899 -0.097,3.825 -1.177,1.383 -1.973,1.972 -2.843,2.102 -1.083,0.163 -1.96,-0.032 -2.664,-0.591 -0.336,-0.267 -0.712,-0.486 -0.835,-0.486 -0.321,0 -1.27,-2.112 -1.349,-3 -0.22,-2.495 3.509,-5.151 5.554,-3.956 m -16.756,5.058 c 0.566,0.094 1.62,0.924 2.349,1.85 0.958,1.217 0.868,3.521 -0.172,4.448 -0.196,0.175 -0.357,0.422 -0.357,0.548 0,0.127 -0.356,0.383 -0.791,0.569 -0.435,0.187 -1.035,0.455 -1.332,0.596 -0.695,0.33 -1.603,0.098 -3.377,-0.863 -0.596,-0.323 -1.521,-2.158 -1.555,-3.087 -0.028,-0.755 0.884,-2.997 1.22,-2.997 0.079,0 0.374,-0.194 0.655,-0.431 0.799,-0.672 1.887,-0.877 3.36,-0.633 m -15.626,5.524 c 0.395,0.157 0.808,0.507 1.084,0.919 0.245,0.366 0.577,0.862 0.736,1.102 0.343,0.513 0.407,2.492 0.1,3.072 -1.347,2.548 -4.638,3.355 -6.488,1.591 -2.422,-2.309 -1.537,-6.49 1.46,-6.895 0.442,-0.059 0.879,-0.136 0.971,-0.169 0.275,-0.1 1.457,0.11 2.137,0.38 m 57.363,0.353 c 3.207,1.996 3.208,5.507 0.003,7.479 -0.745,0.458 -2.739,0.543 -3.081,0.131 -0.111,-0.133 -0.364,-0.29 -0.562,-0.348 -1.331,-0.389 -2.347,-2.776 -1.926,-4.527 0.564,-2.351 3.704,-3.894 5.566,-2.735 m -20.354,0.295 c 0.561,0.242 1.191,0.636 1.398,0.875 0.208,0.239 0.491,0.555 0.63,0.703 0.504,0.536 0.73,2.171 0.476,3.441 -0.137,0.685 -1.811,2.388 -2.668,2.713 -1.86,0.708 -3.929,-0.287 -4.991,-2.4 -0.711,-1.414 -0.708,-1.549 0.063,-3.165 1.057,-2.219 3.029,-3.058 5.092,-2.167 m 25.879,7.042 c 2.206,0.633 2.883,4.077 1.101,5.6 l -0.779,0.667 h -1.516 -1.515 L 123.344,31 c -2.521,-2.62 -0.091,-6.527 3.431,-5.517 m -41.376,0.936 c 4.962,1.292 2.917,8.372 -2.215,7.667 -3.669,-0.505 -4.165,-6.686 -0.609,-7.597 0.371,-0.096 0.75,-0.201 0.842,-0.235 0.363,-0.133 1.058,-0.075 1.982,0.165 m 21.742,2.186 c 2.665,0.767 3.757,3.972 2.049,6.011 -1.246,1.489 -1.383,1.578 -2.582,1.674 -1.677,0.135 -2.533,-0.056 -3.281,-0.732 -3.474,-3.139 -0.673,-8.246 3.814,-6.953 m 27.367,2.566 c 0.498,0.266 1.825,2.383 1.825,2.909 0,1.168 -1.615,3.081 -2.746,3.253 -2.821,0.428 -5.052,-2.116 -3.845,-4.385 0.819,-1.541 1.017,-1.724 2.175,-2.012 0.492,-0.123 2.215,0.034 2.591,0.235 m -64.03,3.191 c 2.304,0.727 3.069,4.718 1.253,6.543 -2.037,2.048 -6.042,1.189 -6.701,-1.437 -0.947,-3.771 1.73,-6.28 5.448,-5.106 m 72.147,0.154 c 0.206,0.079 0.375,0.222 0.375,0.319 0,0.097 0.262,0.331 0.583,0.52 0.321,0.19 0.584,0.452 0.584,0.584 0,0.131 0.187,0.609 0.416,1.061 0.472,0.932 0.528,1.662 0.176,2.308 -0.133,0.243 -0.392,0.799 -0.575,1.236 -0.285,0.677 -0.452,0.843 -1.134,1.129 -0.44,0.185 -1.03,0.456 -1.312,0.603 -0.881,0.461 -3.37,-0.293 -3.923,-1.187 -0.147,-0.239 -0.385,-0.525 -0.529,-0.637 -0.418,-0.322 -0.663,-1.569 -0.539,-2.732 0.134,-1.253 1.896,-3.294 2.969,-3.439 0.677,-0.091 2.417,0.049 2.909,0.235 m -26.973,1.665 c 3.118,1.191 4.279,3.702 3.335,7.213 -0.301,1.116 -1.623,2.496 -2.658,2.772 -0.41,0.109 -1.107,0.353 -1.549,0.542 l -0.804,0.343 -0.863,-0.344 c -0.475,-0.19 -1.163,-0.437 -1.53,-0.55 -0.598,-0.185 -2.234,-1.544 -2.245,-1.866 -0.003,-0.069 -0.195,-0.519 -0.428,-1 -0.518,-1.067 -0.669,-2.029 -0.44,-2.797 0.628,-2.107 1.731,-3.593 2.968,-4.001 0.354,-0.117 0.944,-0.349 1.311,-0.516 0.922,-0.419 1.351,-0.388 2.903,0.204 m -21.266,3.331 c 2.617,1.78 2.348,5.526 -0.496,6.912 -4.542,2.214 -8.051,-3.872 -3.973,-6.89 1.54,-1.14 2.815,-1.147 4.469,-0.022 m 31.689,4.393 c 2.968,1.91 3.742,5.238 1.844,7.928 -1.67,2.369 -5.978,3.035 -7.654,1.184 -0.174,-0.193 -0.416,-0.35 -0.538,-0.35 -0.122,0 -0.429,-0.382 -0.683,-0.848 -0.253,-0.467 -0.592,-1.086 -0.752,-1.375 -0.544,-0.984 -0.33,-3.573 0.352,-4.255 0.196,-0.195 0.356,-0.546 0.356,-0.779 0,-0.324 0.176,-0.528 0.758,-0.875 0.417,-0.248 1.073,-0.657 1.458,-0.907 1.246,-0.81 3.356,-0.69 4.859,0.277 m -22.378,4.745 c 1.152,0.268 2.558,1.337 3.166,2.408 0.305,0.536 0.651,1.136 0.77,1.333 0.338,0.561 0.18,2.991 -0.232,3.569 -0.178,0.251 -0.473,0.748 -0.654,1.105 -0.196,0.385 -0.67,0.876 -1.164,1.208 -0.458,0.308 -1,0.68 -1.203,0.827 -0.441,0.318 -3.363,0.397 -4.056,0.11 -1.011,-0.42 -2.915,-2.326 -3.143,-3.147 -0.469,-1.69 -0.136,-4.699 0.571,-5.163 0.221,-0.145 0.445,-0.401 0.499,-0.569 0.053,-0.169 0.338,-0.46 0.631,-0.647 0.294,-0.187 0.709,-0.468 0.921,-0.624 0.676,-0.494 2.639,-0.701 3.894,-0.41 m -23.274,1.09 c 0.363,0.145 0.792,0.47 0.952,0.721 0.161,0.25 0.479,0.711 0.709,1.022 1.446,1.967 -0.347,5.492 -2.932,5.763 C 77.316,57.439 75,56.409 75,55.4 c 0,-0.104 -0.159,-0.39 -0.353,-0.637 -1.056,-1.343 0.295,-4.418 2.273,-5.174 0.807,-0.309 2.545,-0.234 3.503,0.151 m 55.299,0.825 c 1.386,0.649 1.452,0.714 2.117,2.087 0.691,1.425 0.267,3.823 -0.776,4.401 -0.172,0.095 -0.503,0.376 -0.736,0.623 -1.377,1.465 -4.785,0.46 -5.958,-1.757 -0.331,-0.625 -0.338,-2.699 -0.012,-3.293 0.692,-1.261 1.137,-1.755 1.674,-1.856 0.304,-0.058 0.777,-0.249 1.052,-0.425 0.723,-0.463 1.279,-0.417 2.639,0.22 m 11.732,3.665 c 0.489,0.256 1.477,1.242 1.938,1.932 0.328,0.492 0.383,2.657 0.081,3.224 -0.305,0.573 -1.477,1.913 -1.781,2.035 -0.912,0.366 -1.916,0.517 -2.645,0.397 -0.439,-0.072 -0.892,-0.136 -1.009,-0.141 -0.361,-0.017 -1.673,-1.338 -2.116,-2.131 -1.772,-3.17 2.253,-7.037 5.532,-5.316 m 11.996,1.627 c 0.257,0.24 0.635,0.522 0.842,0.628 0.206,0.107 0.375,0.28 0.375,0.387 0,0.106 0.206,0.408 0.458,0.671 0.424,0.443 0.458,0.581 0.458,1.853 0,1.255 -0.039,1.42 -0.458,1.918 -0.252,0.3 -0.458,0.644 -0.458,0.766 0,0.207 -0.528,0.604 -1.733,1.304 -0.745,0.433 -2.598,0.333 -3.134,-0.17 -0.211,-0.197 -0.591,-0.437 -0.845,-0.533 -0.253,-0.096 -0.528,-0.35 -0.609,-0.564 -0.081,-0.214 -0.342,-0.676 -0.58,-1.026 -0.341,-0.503 -0.433,-0.84 -0.433,-1.591 0,-0.751 0.092,-1.088 0.433,-1.591 0.238,-0.35 0.5,-0.814 0.582,-1.031 0.082,-0.217 0.408,-0.502 0.723,-0.634 0.315,-0.131 0.623,-0.32 0.685,-0.42 0.409,-0.661 2.974,-0.638 3.694,0.033 m -42.988,2.378 c 1.34,0.68 2.213,1.563 2.608,2.638 0.159,0.435 0.359,0.833 0.443,0.885 0.905,0.559 -0.359,4.201 -1.945,5.602 -2.541,2.245 -7.552,0.906 -8.474,-2.264 -0.471,-1.622 -0.05,-4.931 0.662,-5.205 0.131,-0.05 0.387,-0.333 0.57,-0.63 0.216,-0.348 0.567,-0.616 0.993,-0.756 0.364,-0.12 0.871,-0.357 1.129,-0.527 0.835,-0.551 2.652,-0.434 4.014,0.257 M 91.798,61.31 c 0.34,0.17 0.817,0.357 1.06,0.415 1.724,0.414 3.545,3.75 3.091,5.661 -0.091,0.384 -0.232,0.976 -0.312,1.316 -0.342,1.444 -3.266,3.515 -4.97,3.519 -1.65,0.004 -4.132,-1.42 -4.74,-2.721 -0.15,-0.321 -0.401,-0.808 -0.558,-1.083 C 84.874,67.55 84.97,65.397 85.542,64.533 85.794,64.152 86,63.761 86,63.664 c 0,-1.29 4.376,-3.066 5.798,-2.354 m 38.227,5.601 c 0.489,0.437 0.87,0.996 1.171,1.717 0.245,0.588 0.483,1.106 0.529,1.152 0.567,0.567 -1.531,3.725 -2.688,4.046 -4.445,1.234 -7.553,-3.496 -4.342,-6.609 1.385,-1.343 3.999,-1.493 5.33,-0.306 m 13.242,3.942 c 0.285,0.086 0.691,0.342 0.904,0.569 0.213,0.226 0.479,0.411 0.59,0.411 0.219,0 0.235,0.032 0.829,1.667 0.333,0.914 0.368,1.188 0.224,1.75 -0.094,0.367 -0.21,0.827 -0.258,1.023 -0.274,1.116 -2.378,2.583 -3.723,2.596 -0.995,0.01 -2.486,-0.765 -3.298,-1.713 l -0.618,-0.723 v -1.675 c 0,-3.14 2.307,-4.824 5.35,-3.905 m -36.812,1.618 c 1.227,0.478 1.965,1.056 3.045,2.387 l 0.583,0.719 v 2.09 2.089 l -0.583,0.719 c -1.973,2.431 -4.153,3.315 -6.025,2.443 -0.49,-0.228 -1.015,-0.415 -1.166,-0.416 -0.356,-0.002 -1.753,-1.325 -2.15,-2.034 -0.791,-1.416 -0.858,-1.673 -0.8,-3.042 0.1,-2.339 1.503,-4.098 3.917,-4.909 1.827,-0.615 1.724,-0.613 3.179,-0.046 m 51.461,0.352 c 3.437,0.564 3.855,6.464 0.534,7.542 -3.765,1.222 -7.039,-1.925 -5.457,-5.247 0.971,-2.041 2.403,-2.708 4.923,-2.295 m -35.674,9.385 c 0.33,0.207 0.841,0.525 1.137,0.709 2.056,1.275 1.845,5.11 -0.36,6.541 -2.007,1.303 -3.402,1.051 -5.301,-0.958 -1.615,-1.708 -1.046,-4.803 1.08,-5.869 0.314,-0.157 0.656,-0.356 0.761,-0.442 0.531,-0.436 1.972,-0.426 2.683,0.019 m 17.485,5.647 c 3.112,1.911 3.268,4.851 0.383,7.171 -2.25,1.809 -6.308,-0.524 -6.271,-3.605 0.034,-2.732 3.664,-4.931 5.888,-3.566 m 17.58,2.286 c 1.516,0.717 2.272,1.595 2.524,2.929 0.751,3.979 -3.619,6.508 -6.69,3.872 -3.279,-2.813 0.288,-8.635 4.166,-6.801 m -145.476,3.22 c -0.403,0.404 -0.507,0.629 -0.44,0.958 0.048,0.237 0.169,0.806 0.268,1.264 0.1,0.459 0.26,1.539 0.356,2.401 0.097,0.862 0.322,1.959 0.501,2.438 0.179,0.478 0.431,1.468 0.56,2.2 0.128,0.733 0.418,1.773 0.643,2.313 0.226,0.54 0.466,1.319 0.533,1.732 0.068,0.412 0.3,1.088 0.516,1.502 0.216,0.414 0.47,1.159 0.564,1.657 0.094,0.497 0.302,1.096 0.461,1.331 0.16,0.234 0.44,0.876 0.624,1.426 0.484,1.452 1.244,1.865 2.773,1.507 2.737,-0.642 26.397,-0.711 28.477,-0.084 0.868,0.262 3.046,0.486 6.5,0.67 3.753,0.199 5.55,0.38 7.083,0.715 0.642,0.14 2.629,0.34 4.417,0.445 1.971,0.116 3.446,0.28 3.75,0.416 0.533,0.241 2.306,0.483 5.416,0.739 1.054,0.087 2.554,0.307 3.334,0.488 1.199,0.28 3.47,0.544 6.617,0.77 0.385,0.028 1.022,0.169 1.416,0.314 0.409,0.149 2.073,0.376 3.869,0.526 1.928,0.162 3.333,0.357 3.617,0.504 0.255,0.132 0.665,0.24 0.912,0.24 0.246,0 0.906,0.072 1.466,0.16 0.561,0.088 1.994,0.239 3.186,0.336 1.192,0.097 2.579,0.289 3.083,0.425 0.504,0.137 2.529,0.396 4.5,0.576 1.971,0.179 3.996,0.44 4.5,0.579 0.954,0.264 1.247,0.296 5.5,0.611 1.421,0.106 2.851,0.286 3.177,0.401 0.326,0.115 1.826,0.294 3.333,0.399 2.461,0.172 3.742,0.289 9.324,0.851 4.166,0.42 19.843,0.851 21.556,0.592 0.668,-0.1 0.854,-0.209 1.084,-0.63 0.152,-0.279 0.433,-0.705 0.625,-0.946 1.323,-1.66 0.881,-2.031 -2.641,-2.211 -1.489,-0.077 -3.12,-0.247 -3.624,-0.378 -0.989,-0.257 -3.216,-0.515 -5.988,-0.693 -0.955,-0.062 -2.225,-0.251 -2.821,-0.422 -0.596,-0.17 -1.877,-0.391 -2.846,-0.49 -1.968,-0.202 -3.026,-0.381 -4.275,-0.726 -0.466,-0.128 -1.823,-0.352 -3.015,-0.498 -1.219,-0.148 -2.491,-0.405 -2.904,-0.586 -0.404,-0.176 -1.447,-0.404 -2.318,-0.506 -0.871,-0.102 -2.221,-0.368 -3,-0.59 -0.779,-0.223 -2.007,-0.484 -2.729,-0.581 -0.721,-0.096 -1.659,-0.329 -2.083,-0.518 -0.424,-0.188 -1.339,-0.408 -2.033,-0.488 -1.395,-0.161 -2.152,-0.318 -2.405,-0.499 -0.36,-0.258 -1.35,-0.504 -2.711,-0.673 -0.784,-0.098 -1.74,-0.32 -2.124,-0.495 -0.384,-0.175 -1.44,-0.43 -2.348,-0.566 -0.908,-0.136 -1.988,-0.395 -2.4,-0.576 -0.413,-0.181 -1.35,-0.418 -2.083,-0.528 -0.733,-0.109 -1.596,-0.33 -1.917,-0.49 -0.698,-0.35 -1.089,-0.449 -2.61,-0.665 -0.637,-0.09 -1.51,-0.32 -1.94,-0.51 -0.431,-0.191 -1.365,-0.449 -2.075,-0.575 -0.711,-0.125 -1.667,-0.373 -2.125,-0.552 -0.459,-0.179 -1.425,-0.412 -2.148,-0.517 -0.724,-0.106 -1.65,-0.34 -2.059,-0.521 -0.41,-0.181 -1.399,-0.435 -2.2,-0.564 -0.8,-0.129 -1.756,-0.388 -2.123,-0.575 -0.368,-0.188 -1.337,-0.429 -2.153,-0.536 -0.838,-0.11 -1.85,-0.366 -2.324,-0.589 -0.462,-0.216 -1.366,-0.468 -2.009,-0.559 -0.642,-0.091 -1.51,-0.317 -1.928,-0.502 -0.418,-0.185 -1.352,-0.424 -2.075,-0.53 -0.723,-0.107 -1.765,-0.363 -2.315,-0.569 -0.55,-0.206 -1.6,-0.463 -2.333,-0.573 -0.733,-0.109 -1.667,-0.344 -2.074,-0.522 -0.407,-0.178 -1.431,-0.435 -2.274,-0.571 -0.844,-0.135 -1.879,-0.399 -2.3,-0.585 -0.421,-0.186 -1.348,-0.408 -2.059,-0.492 -1.343,-0.159 -1.891,-0.295 -2.876,-0.714 -0.321,-0.137 -1.259,-0.336 -2.084,-0.444 -0.825,-0.107 -1.725,-0.308 -2,-0.445 -0.275,-0.137 -1.25,-0.361 -2.166,-0.497 C 48.5,97.929 47.135,97.63 46.384,97.401 45.633,97.172 44.329,96.908 43.486,96.814 42.643,96.72 41.496,96.498 40.935,96.321 40.375,96.144 39.167,95.918 38.25,95.819 37.333,95.72 35.871,95.456 35,95.232 34.129,95.008 32.517,94.754 31.417,94.668 29.177,94.492 28.582,94.403 27.5,94.077 c -0.697,-0.21 -2.936,-0.411 -7.417,-0.668 -1.008,-0.058 -2.306,-0.211 -2.885,-0.34 -0.579,-0.13 -1.904,-0.236 -2.946,-0.236 h -1.893 l -0.528,0.528 m 28.939,33.831 c -0.173,0.101 -0.998,0.203 -1.834,0.228 -3.606,0.107 -6.741,0.411 -8.412,0.816 -0.949,0.23 -2.167,0.468 -2.705,0.529 -2.033,0.23 -1.982,0.866 0.284,3.503 1.203,1.4 1.56,1.805 2.564,2.905 1.458,1.598 4.555,4.693 5.858,5.853 0.582,0.519 1.358,1.212 1.725,1.539 1.158,1.034 3.792,3.102 3.952,3.102 0.084,0 0.409,0.195 0.722,0.433 l 0.568,0.434 1.235,-0.427 c 0.679,-0.234 1.866,-0.505 2.636,-0.6 0.77,-0.096 1.819,-0.321 2.33,-0.501 0.512,-0.18 1.784,-0.409 2.827,-0.51 1.043,-0.101 2.459,-0.325 3.147,-0.497 1.448,-0.363 3.107,-0.596 5.916,-0.829 1.1,-0.091 2.415,-0.274 2.922,-0.406 0.507,-0.132 2.345,-0.325 4.083,-0.427 1.739,-0.103 3.709,-0.258 4.377,-0.345 0.668,-0.087 1.531,-0.159 1.917,-0.159 0.386,0 1.226,-0.108 1.868,-0.241 0.707,-0.146 3.168,-0.309 6.25,-0.416 2.796,-0.096 5.646,-0.222 6.333,-0.278 0.688,-0.057 2.066,-0.097 3.062,-0.089 1.148,0.009 1.942,-0.06 2.167,-0.189 0.417,-0.239 3.259,-0.388 11.855,-0.62 7.871,-0.213 11.06,-0.38 11.583,-0.607 0.234,-0.101 2.212,-0.233 4.5,-0.298 5.973,-0.172 9.803,-0.412 14.667,-0.92 1.961,-0.204 5.836,-0.489 6.808,-0.5 0.792,-0.009 0.718,0.05 2.858,-2.285 3.415,-3.725 3.663,-3.557 -5.245,-3.556 -5.189,0.001 -6.968,-0.054 -8.005,-0.246 -0.862,-0.16 -4.043,-0.342 -9,-0.515 -8.08,-0.281 -9.827,-0.385 -13.333,-0.794 -1.192,-0.139 -4.524,-0.338 -7.406,-0.443 -3.811,-0.139 -5.395,-0.256 -5.812,-0.43 -0.315,-0.132 -0.995,-0.239 -1.511,-0.238 -0.516,0 -1.5,-0.072 -2.188,-0.162 -0.687,-0.089 -3.275,-0.249 -5.75,-0.355 -2.857,-0.122 -4.652,-0.267 -4.916,-0.398 -0.279,-0.137 -2.315,-0.27 -6.167,-0.403 -3.163,-0.108 -7.531,-0.274 -9.707,-0.367 -2.176,-0.094 -4.034,-0.124 -4.127,-0.066 -0.094,0.058 -0.406,-0.012 -0.694,-0.156 -0.656,-0.327 -21.645,-0.392 -22.202,-0.069 m 90.563,18.427 c -0.412,0.034 -0.975,0.165 -1.25,0.291 -0.301,0.139 -1.69,0.304 -3.5,0.417 -3.374,0.21 -5.647,0.461 -6.216,0.687 -0.21,0.084 -0.64,0.153 -0.955,0.153 -0.315,0 -1.08,0.073 -1.701,0.162 -0.62,0.089 -2.43,0.245 -4.022,0.347 -1.592,0.102 -3.184,0.288 -3.538,0.413 -0.355,0.125 -2.044,0.307 -3.772,0.407 -1.721,0.098 -3.316,0.224 -3.546,0.278 -1.103,0.262 -5.689,0.841 -8.25,1.041 -1.283,0.101 -2.596,0.262 -2.916,0.358 -0.823,0.246 -3.908,0.653 -5,0.659 -0.863,0.004 -4.02,0.557 -4.351,0.762 -0.084,0.052 -1.333,0.199 -2.776,0.328 -1.631,0.145 -2.97,0.356 -3.54,0.559 -0.504,0.179 -1.639,0.406 -2.521,0.504 -0.882,0.098 -2.307,0.364 -3.167,0.59 -0.859,0.227 -2.162,0.487 -2.895,0.578 -0.734,0.091 -1.934,0.349 -2.667,0.574 -0.733,0.224 -1.656,0.494 -2.05,0.6 -1.232,0.329 -1.065,0.914 0.382,1.342 0.368,0.108 0.789,0.304 0.936,0.436 0.148,0.131 0.89,0.355 1.649,0.498 0.76,0.143 1.659,0.406 1.999,0.583 0.34,0.177 1.286,0.431 2.101,0.564 0.816,0.133 1.895,0.388 2.4,0.566 0.504,0.178 2.039,0.447 3.411,0.597 1.373,0.151 2.584,0.347 2.692,0.437 0.887,0.736 17.842,0.847 20.48,0.133 0.86,-0.232 2.081,-0.419 4.211,-0.643 0.942,-0.1 2.089,-0.329 2.55,-0.511 0.46,-0.181 1.503,-0.438 2.316,-0.569 0.814,-0.132 1.774,-0.39 2.135,-0.574 0.36,-0.184 1.173,-0.422 1.805,-0.53 0.632,-0.108 1.525,-0.37 1.983,-0.584 0.458,-0.213 1.185,-0.466 1.616,-0.562 0.43,-0.095 1.044,-0.352 1.364,-0.569 0.32,-0.217 0.902,-0.446 1.294,-0.509 0.391,-0.062 1.09,-0.326 1.552,-0.585 0.462,-0.259 1.066,-0.523 1.341,-0.586 0.275,-0.063 0.765,-0.288 1.089,-0.5 0.325,-0.212 0.833,-0.439 1.129,-0.504 0.297,-0.065 0.744,-0.289 0.994,-0.497 0.25,-0.208 0.754,-0.473 1.121,-0.59 0.367,-0.116 0.817,-0.344 1,-0.507 0.183,-0.164 0.69,-0.463 1.125,-0.665 0.435,-0.202 0.792,-0.427 0.792,-0.498 0,-0.072 0.318,-0.257 0.708,-0.411 0.39,-0.155 0.896,-0.456 1.125,-0.67 0.229,-0.213 0.679,-0.509 1,-0.658 0.712,-0.329 2.042,-1.298 2.914,-2.124 1.101,-1.042 0.523,-1.27 -2.581,-1.018"
       inkscape:connector-curvature="0"
       style="fill:#0f70b7;fill-rule:evenodd;stroke:none"
       sodipodi:nodetypes="csccccsssccsscscsccscccscsccscscsccscccccsscscsccccccccscscccsccccccsscscscccsccccsccscccccscsccsccccscscscscscscscccssccccccccccccccccccccsccccccccccccscscccccccccscccsscsssccccccccccccccccccccsccsccccccscccccscccccscccccsccccscccccccccccccccccccsccccccccccccccccccccccscccccccccscsccccccccccccccccccccccccccccccscccscccccccccccccccccccccscccccccccccccccsccccccscscscccscscscccccccccccccccccccccscccscccccsccccccsccccccccccccccccccccccccccccccccccccccccscccccccccccccccscsccccscccccccccccccsccccccssccccccccccccccscscscscccscsscssccccsccccccccccscccccsccscssccccccccccccccccccccccccccccccscscccccccccscccccccscccccccccsccscssccsccssccccc" />
  </g>
</svg>
