<?xml version="1.0" standalone="no"?>
<!DOCTYPE svg PUBLIC "-//W3C//DTD SVG 20010904//EN"
 "http://www.w3.org/TR/2001/REC-SVG-20010904/DTD/svg10.dtd">
<svg version="1.0" xmlns="http://www.w3.org/2000/svg"
 width="628.000000pt" height="628.000000pt" viewBox="0 0 628.000000 628.000000"
 preserveAspectRatio="xMidYMid meet">
<metadata>
Created by potrace 1.11, written by Peter Selinger 2001-2013
</metadata>
<g transform="translate(0.000000,628.000000) scale(0.100000,-0.100000)"
fill="#000000" stroke="none">
<path d="M2909 6276 c-2 -2 -26 -6 -54 -10 -27 -3 -61 -8 -75 -11 -14 -2 -52
-7 -85 -10 -78 -7 -113 -13 -203 -35 -23 -5 -59 -12 -79 -15 -88 -11 -351 -97
-513 -167 -25 -10 -54 -23 -65 -28 -58 -25 -176 -83 -220 -109 -114 -66 -171
-100 -185 -113 -9 -7 -28 -19 -43 -27 -15 -8 -27 -18 -27 -23 0 -4 -6 -8 -14
-8 -8 0 -48 -26 -88 -58 -40 -31 -91 -70 -113 -87 -106 -78 -391 -369 -498
-510 -4 -5 -21 -28 -38 -50 -43 -56 -145 -208 -165 -247 -9 -18 -20 -35 -24
-38 -24 -17 -230 -451 -245 -518 -2 -10 -13 -42 -24 -72 -43 -121 -61 -188
-66 -247 -7 -72 -2 -77 80 -87 128 -15 146 -18 235 -36 30 -6 71 -13 90 -16
19 -3 71 -14 115 -24 44 -11 91 -21 105 -23 14 -2 32 -7 40 -10 27 -10 87 -28
111 -32 30 -6 149 -42 209 -64 25 -8 47 -16 50 -17 23 -4 69 -19 85 -27 11 -6
28 -12 37 -14 16 -3 183 -67 258 -100 19 -8 44 -19 55 -23 11 -5 88 -41 170
-81 83 -40 152 -73 155 -74 3 0 12 -5 20 -10 8 -5 67 -36 130 -69 248 -128
306 -158 337 -176 44 -26 351 -185 543 -281 298 -149 542 -259 575 -259 8 0
15 -4 15 -9 0 -5 12 -12 28 -16 15 -3 55 -18 89 -31 34 -14 71 -27 82 -29 11
-2 29 -9 40 -15 24 -12 196 -70 230 -76 13 -3 32 -9 42 -14 9 -6 44 -16 76
-25 32 -8 105 -28 163 -45 123 -36 135 -39 177 -46 17 -3 61 -13 97 -24 37
-10 69 -19 71 -19 3 -1 6 -1 8 -2 1 0 13 -2 27 -4 31 -4 68 -12 78 -18 4 -3
23 -8 42 -11 70 -12 96 -16 120 -22 14 -3 34 -8 45 -11 11 -2 34 -7 50 -9 17
-3 64 -13 105 -21 41 -8 84 -16 95 -18 11 -1 31 -5 45 -8 14 -3 59 -11 100
-18 41 -7 77 -13 80 -14 43 -10 74 -15 115 -21 71 -9 118 -15 135 -18 8 -2 31
-6 50 -10 77 -14 97 -17 135 -21 22 -2 58 -8 80 -12 59 -10 79 -10 92 0 19 14
61 110 95 217 17 52 37 110 45 127 7 18 16 48 18 67 3 18 9 44 14 58 17 46 73
341 68 364 -2 13 -1 24 4 24 4 0 6 7 5 16 -1 9 3 55 10 102 12 88 12 475 0
542 -3 19 -8 64 -10 100 -4 60 -10 107 -22 170 -3 14 -9 48 -14 75 -17 92 -21
110 -36 162 -8 29 -17 64 -20 79 -3 15 -11 43 -19 62 -9 19 -17 44 -19 56 -8
35 -67 199 -87 239 -11 20 -17 37 -14 37 4 0 -2 12 -13 28 -10 15 -22 38 -25
52 -4 14 -37 81 -75 150 -38 69 -78 141 -88 160 -10 19 -21 37 -24 40 -3 3
-18 25 -35 50 -119 181 -230 316 -387 474 l-119 119 -49 -48 c-47 -47 -51 -48
-110 -49 -68 -1 -90 14 -125 84 -21 40 -32 50 -61 50 -23 0 -53 14 -91 41 -47
33 -51 99 -11 191 11 26 18 53 15 60 -3 7 -31 26 -64 43 -32 16 -60 32 -63 36
-3 3 -27 18 -55 33 -27 14 -57 31 -65 36 -20 13 -186 90 -193 90 -4 0 -30 11
-59 24 -134 60 -338 121 -613 182 -11 2 -38 6 -60 8 -73 8 -140 16 -175 23
-19 3 -44 8 -55 10 -29 5 -501 14 -506 9z m536 -121 c82 -48 114 -156 65 -224
-39 -56 -86 -84 -139 -84 -73 0 -130 41 -154 114 -29 85 4 154 94 197 53 26
87 25 134 -3z m-680 -194 c21 -3 84 -68 97 -101 30 -74 -7 -163 -84 -200 -54
-26 -83 -25 -138 3 -35 17 -51 34 -73 76 -28 56 -28 63 -1 137 11 32 25 47 61
67 43 23 72 27 138 18z m-641 -220 c71 -29 108 -139 71 -211 -22 -43 -77 -80
-132 -89 -41 -6 -55 -4 -88 15 -93 52 -114 192 -39 263 42 39 124 49 188 22z
m2333 -35 c61 -53 81 -132 50 -193 -23 -43 -83 -93 -115 -94 -15 -1 -36 -3
-47 -3 -29 -2 -94 38 -116 70 -22 33 -35 106 -24 131 5 10 7 21 7 26 -1 4 16
25 37 46 64 64 147 70 208 17z m-827 0 c65 -32 88 -84 81 -183 -2 -45 -138
-152 -156 -123 -3 4 -13 6 -23 4 -38 -10 -113 61 -141 132 -11 28 -10 37 13
80 33 64 47 80 82 99 36 19 96 15 144 -9z m1040 -282 c58 -35 79 -118 46 -181
-23 -46 -44 -57 -107 -59 -66 -2 -98 15 -125 68 -13 25 -15 75 -5 115 3 11 53
55 72 62 37 15 88 13 119 -5z m-1690 -28 c96 -16 147 -107 111 -199 -13 -34
-64 -85 -98 -98 -36 -14 -100 -11 -133 6 -99 51 -104 233 -8 278 41 19 69 25
88 21 8 -2 26 -5 40 -8z m900 -95 c43 -18 71 -49 84 -93 17 -58 14 -89 -15
-129 -46 -66 -70 -80 -136 -78 -77 3 -115 25 -146 84 -17 33 -25 100 -14 111
4 4 7 14 7 23 1 22 31 56 71 79 36 21 103 22 149 3z m1084 -104 c35 -24 71
-97 62 -130 -8 -33 -50 -82 -85 -100 -35 -18 -110 -1 -146 33 -23 21 -42 63
-40 85 5 46 47 113 79 124 34 13 100 7 130 -12z m-2556 -126 c39 -21 64 -68
68 -134 5 -57 2 -66 -24 -103 -54 -74 -169 -83 -242 -18 -76 69 -51 217 45
260 33 16 120 13 153 -5z m2912 -28 c15 -13 35 -48 45 -78 18 -52 18 -55 0
-97 -10 -24 -24 -49 -29 -57 -18 -23 -106 -60 -133 -55 -152 28 -203 170 -99
278 37 37 51 45 88 48 54 4 94 -8 128 -39z m-1091 -50 c96 -43 142 -153 110
-266 -16 -58 -61 -102 -136 -132 -58 -23 -70 -25 -97 -14 -123 48 -153 75
-181 158 -19 58 -15 95 15 154 22 43 68 97 81 97 4 0 20 5 36 12 15 6 37 13
47 15 11 2 22 5 24 7 5 5 54 -10 101 -31z m-891 -116 c18 -10 45 -37 59 -58
23 -34 25 -46 20 -96 -5 -45 -12 -62 -38 -89 -82 -85 -209 -71 -260 27 -34 67
-22 136 32 190 60 60 117 68 187 26z m1253 -165 c34 -14 103 -80 122 -118 18
-35 28 -121 17 -144 -34 -74 -49 -94 -88 -120 -116 -77 -259 -42 -318 79 -35
69 -34 133 2 201 30 57 33 60 99 94 52 26 112 29 166 8z m-855 -214 c3 -4 9
-6 13 -3 14 8 94 -70 118 -113 43 -82 15 -193 -68 -262 -49 -40 -87 -48 -196
-41 -35 2 -133 100 -142 142 -36 161 60 291 212 287 32 -1 60 -5 63 -10z
m-941 -42 c43 -23 83 -90 80 -137 -4 -62 -47 -124 -97 -143 -111 -41 -208 11
-232 124 -7 35 34 122 70 147 46 33 125 37 179 9z m2218 -30 c143 -70 112
-284 -45 -310 -57 -9 -175 66 -179 114 0 8 -2 28 -4 45 -4 46 12 88 46 123 18
18 34 31 36 28 3 -2 19 2 36 9 38 17 60 15 110 -9z m463 -144 c10 -5 34 -27
53 -47 28 -31 34 -47 37 -89 2 -43 -2 -58 -29 -99 -35 -52 -74 -71 -145 -70
-50 1 -80 19 -119 69 -67 88 -20 208 96 245 31 9 80 6 107 -9z m482 -66 c17
-9 40 -28 51 -43 11 -16 24 -32 29 -38 4 -5 7 -33 7 -61 -2 -170 -221 -231
-304 -84 -32 57 -33 87 -6 144 44 92 137 127 223 82z m-1771 -80 c70 -19 123
-62 157 -129 31 -62 30 -100 -4 -168 -44 -86 -93 -121 -178 -125 -59 -3 -100
8 -152 43 -53 34 -73 76 -75 153 -3 131 47 197 175 231 14 4 25 7 25 8 0 0 24
-6 52 -13z m-886 -162 c60 -31 111 -119 111 -194 1 -89 -44 -152 -140 -197
-58 -27 -106 -27 -164 3 -37 18 -98 73 -98 88 0 5 -7 17 -16 27 -33 37 -9 185
39 233 21 21 97 58 131 63 17 3 32 6 34 8 5 5 74 -16 103 -31z m1451 -185 c34
-14 98 -109 98 -147 0 -22 -48 -99 -79 -126 -45 -40 -149 -34 -205 13 -31 26
-58 98 -51 134 15 68 65 123 123 133 15 3 28 7 30 9 5 5 53 -4 84 -16z m555
-174 c36 -8 79 -57 96 -108 14 -41 14 -53 2 -93 -13 -43 -57 -94 -82 -94 -6 0
-13 -4 -15 -9 -1 -5 -18 -12 -37 -14 -64 -10 -170 58 -172 112 -5 80 6 130 35
163 41 48 95 62 173 43z m-1460 -70 c18 -8 56 -37 83 -65 l50 -51 0 -88 0 -88
-49 -50 c-81 -82 -145 -101 -233 -67 -89 35 -146 115 -146 205 1 96 56 173
148 204 3 1 12 4 20 8 45 17 70 16 127 -8z m2100 -31 c59 -44 81 -144 45 -214
-50 -101 -227 -99 -288 4 -39 66 -2 185 68 219 46 22 139 18 175 -9z m-1457
-369 c22 -14 47 -37 57 -52 19 -29 28 -129 12 -139 -5 -3 -7 -9 -4 -14 9 -14
-69 -85 -106 -96 -88 -27 -199 64 -199 163 0 79 84 163 163 163 23 0 53 -10
77 -25z m648 -201 c37 -7 99 -64 117 -107 25 -60 6 -117 -57 -177 -56 -54
-145 -49 -209 13 -75 71 -73 160 5 230 42 38 89 52 144 41z m764 -121 c52 -32
80 -90 73 -150 -13 -110 -96 -165 -211 -138 -57 13 -118 106 -107 165 7 42 42
104 70 124 53 39 113 39 175 -1z"/>
<path d="M72 2732 c-31 -5 -55 -44 -48 -79 6 -29 11 -61 21 -128 18 -113 128
-483 167 -555 10 -19 18 -40 18 -46 0 -16 35 -45 56 -46 11 0 48 3 84 6 175
19 1069 20 1099 2 6 -4 30 -9 53 -11 101 -10 159 -15 248 -20 126 -8 158 -11
200 -20 50 -9 73 -12 295 -30 28 -3 60 -7 73 -10 52 -12 64 -14 124 -20 78 -7
132 -14 167 -19 14 -3 42 -7 61 -10 19 -3 44 -7 55 -10 11 -2 52 -7 90 -10
104 -10 155 -17 205 -28 25 -5 65 -11 90 -14 111 -10 185 -20 197 -27 5 -3 40
-8 78 -12 39 -4 81 -8 95 -10 14 -2 50 -7 80 -10 30 -3 66 -8 80 -10 32 -7 80
-13 150 -20 30 -3 71 -8 90 -10 19 -3 57 -7 84 -10 28 -4 52 -8 55 -10 7 -4
73 -11 176 -20 109 -9 167 -17 225 -29 14 -2 66 -7 115 -10 50 -4 108 -8 130
-11 205 -24 416 -35 780 -41 154 -2 289 -2 301 2 11 3 35 29 52 57 45 74 34
82 -123 93 -44 2 -105 9 -135 14 -79 13 -125 19 -205 25 -73 6 -119 12 -146
21 -18 5 -34 8 -149 23 -42 5 -82 12 -90 15 -8 3 -28 7 -45 10 -116 17 -180
29 -250 46 -44 10 -94 21 -112 24 -47 6 -223 45 -260 57 -17 5 -65 16 -105 24
-40 8 -96 20 -123 28 -28 8 -67 17 -85 20 -19 3 -62 12 -95 21 -63 17 -178 45
-208 51 -10 2 -52 14 -95 25 -42 12 -84 23 -92 25 -56 12 -112 27 -153 39 -26
9 -49 15 -52 16 -6 0 -16 2 -30 4 -5 1 -30 8 -55 15 -56 16 -76 21 -120 28
-19 3 -44 9 -55 13 -28 11 -33 12 -90 26 -46 11 -175 45 -365 96 -75 20 -142
37 -170 43 -8 2 -89 22 -180 45 -91 23 -174 43 -186 45 -11 1 -26 5 -33 9 -6
4 -21 9 -34 12 -12 2 -33 6 -47 9 -14 3 -41 8 -60 11 -19 3 -42 10 -50 14 -8
4 -42 13 -75 20 -84 16 -92 18 -165 35 -36 8 -77 17 -92 20 -14 3 -53 11 -85
19 -32 8 -78 17 -103 20 -25 3 -71 12 -101 20 -31 8 -78 17 -105 20 -27 2 -56
7 -64 10 -8 3 -32 8 -54 11 -21 3 -41 7 -45 9 -6 4 -65 11 -171 22 -36 3 -69
9 -75 12 -15 10 -30 11 -257 27 -42 3 -91 8 -110 10 -32 5 -117 13 -188 18
-19 2 -45 1 -58 -1z"/>
<path d="M1337 1364 c-1 -1 -42 -4 -92 -8 -49 -4 -112 -9 -140 -11 -27 -2 -88
-6 -135 -9 -47 -3 -96 -8 -110 -11 -14 -3 -41 -8 -60 -11 -19 -2 -42 -7 -50
-9 -8 -3 -33 -7 -55 -11 -59 -9 -77 -21 -69 -47 26 -85 427 -489 617 -622 61
-42 70 -46 95 -36 24 9 111 30 195 45 15 2 30 7 34 9 5 3 31 8 58 11 86 11
216 33 245 41 8 2 47 7 85 10 39 3 85 8 103 11 65 8 108 15 132 19 14 3 61 7
105 10 44 3 105 8 135 11 30 3 80 7 110 9 30 2 66 7 79 9 36 8 296 22 570 31
85 3 157 7 160 10 12 7 139 16 291 20 408 11 647 22 660 30 6 4 154 12 375 20
66 3 138 7 160 9 22 3 78 8 125 11 47 4 101 8 120 10 19 2 76 7 125 10 167 11
162 9 217 67 71 74 118 133 118 147 0 22 -43 27 -288 30 -240 2 -291 4 -417
16 -33 3 -114 7 -180 10 -322 13 -500 22 -585 30 -132 13 -169 16 -269 20
-201 10 -294 16 -301 20 -12 7 -161 20 -365 30 -60 3 -123 7 -140 10 -85 10
-169 17 -245 20 -47 2 -164 7 -260 10 -96 4 -218 9 -270 11 -52 1 -151 6 -220
9 -103 6 -658 13 -663 9z"/>
<path d="M4816 613 c-7 -8 -97 -20 -206 -28 -126 -10 -195 -17 -201 -20 -9 -6
-113 -18 -259 -30 -95 -8 -175 -17 -181 -20 -3 -2 -36 -6 -75 -9 -147 -13
-191 -16 -234 -21 -47 -6 -85 -12 -85 -15 0 -1 -16 -3 -35 -4 -19 -2 -62 -6
-95 -10 -33 -3 -82 -9 -110 -11 -49 -5 -95 -11 -145 -21 -33 -7 -70 -11 -155
-18 -38 -4 -77 -9 -85 -11 -8 -2 -26 -6 -40 -9 -14 -3 -36 -7 -49 -10 -14 -3
-54 -8 -90 -11 -36 -3 -73 -7 -81 -10 -8 -2 -32 -6 -54 -10 -21 -3 -41 -7 -45
-9 -3 -2 -24 -7 -46 -10 -74 -12 -100 -17 -160 -31 -33 -7 -80 -16 -105 -20
-25 -3 -63 -11 -85 -17 -22 -6 -44 -11 -50 -12 -48 -10 -95 -32 -95 -43 0 -7
12 -18 28 -23 15 -6 39 -17 54 -25 14 -8 33 -15 42 -15 9 0 43 -9 74 -19 32
-11 69 -22 83 -25 47 -10 71 -15 87 -20 9 -3 29 -7 45 -10 15 -3 35 -7 45 -10
17 -5 82 -15 132 -20 14 -2 52 -9 85 -16 82 -19 701 -21 795 -2 36 6 79 14 95
16 110 15 182 30 193 38 6 6 12 8 12 6 0 -10 275 63 310 82 11 6 20 9 20 6 0
-5 37 9 105 39 17 7 41 17 55 21 14 4 53 20 87 35 33 16 66 29 72 29 6 0 11 5
11 12 0 6 3 9 6 6 6 -7 140 61 202 103 24 16 49 29 57 29 8 0 17 5 20 10 4 6
25 22 48 37 79 49 137 97 137 114 0 15 -10 17 -65 16 -36 -1 -67 -3 -69 -4z"/>
</g>
</svg>
